<?xml version="1.0" encoding="UTF-8"?>
<svg id="Layer_2" data-name="Layer 2" xmlns="http://www.w3.org/2000/svg" viewBox="0 0 147.9 65.05">
  <defs>
    <style>
      .cls-1 {
        fill: #3fc900;
      }

      .cls-2 {
        fill: #fff;
      }
    </style>
  </defs>
  <g id="Layer_1-2" data-name="Layer 1">
    <path class="cls-2" d="M49,46.49V1.45h-15.35v44.1c0,1.52-1.38,2.46-3.26,2.46-1.74,0-3.19-.94-3.19-2.46V1.45H11.2v45.04c0,7.89,8.26,14.34,19.19,14.34s18.61-6.45,18.61-14.34h0Z"/>
    <path class="cls-2" d="M90.43,45.26c0-7.17-4.35-14.41-11.95-18.54-8.25-4.49-10.28-5.43-10.28-11.22,0-2.24,2.1-3.4,4.13-3.4s3.69,1.3,3.69,3.33v4.78h13.61v-5.87c0-7.89-7.1-14.34-17.31-14.34-12.6,0-19.05,7.68-19.05,15.57,0,6.59,3.11,13.11,10.43,17.67,8.18,5.14,11.8,6.95,11.8,11.73,0,2.46-1.38,3.77-4.35,3.77s-4.71-1.59-4.71-3.84v-5h-13.61v6.59c0,8.98,7.17,14.34,19.05,14.34s18.54-7.6,18.54-15.57h0Z"/>
    <path class="cls-2" d="M130.62,59.38L120.19,1.45h-18.61l-10.28,57.93h13.83l1.16-7.6h7.46l.8,7.6h16.08ZM112.44,39.32h-4.42l2.39-18.32,2.03,18.32h0Z"/>
    <path d="M16.85,52.01c.04.23-.04.42-.25.55l-4.15,2.93c-.21.16-.33.17-.38.03l-1.04-1.04c-.19-.16-.21-.33-.04-.5.56-.58,1.18-1.14,1.85-1.67-.97.2-1.93.55-2.88,1.04-1.33.69-2.49,1.48-3.48,2.37-1.2,1.09-2.08,2.21-2.66,3.37-.07.12-.14.29-.22.51-.08.22-.17.58-.26,1.09-.1.51-.09.92.02,1.23.04.04.1.07.17.1.07.03.24.09.49.17.25.08.53.12.83.14.3.01.69-.01,1.18-.08.49-.07.99-.21,1.51-.41,1.02-.4,1.91-.86,2.68-1.38.96-.65,1.74-1.26,2.34-1.83-.62.09-1.27.24-1.92.46-.19.09-.28.14-.28.14-.12.03-.19,0-.22-.1l-.16-1.56c0-.4.21-.63.62-.71l5.11-.99c.19-.06.34-.07.44-.05.1.02.17.06.22.12l.04.09.28,1.22c-.03.38-.21.61-.54.7-.08.05-.17.12-.29.22-.12.1-.36.35-.71.74-.35.4-.7.84-1.03,1.32-.33.48-.71,1.15-1.14,2.01-.42.86-.8,1.77-1.14,2.75-.2-.22-.38-.54-.55-.95-.17-.41-.27-.74-.29-1-.47.36-.99.7-1.58,1.02-.9.55-1.87.87-2.89.96-.92.08-1.76-.05-2.5-.38-.82-.37-1.37-.86-1.64-1.47-.31-.39-.53-.73-.65-1.01-.24-.55-.41-1.05-.48-1.5l-.03-.38c-.1-1.2.17-2.43.82-3.69.43-.79.96-1.54,1.59-2.27.58-.62.88-.94.9-.97.57-.54,1.08-.97,1.52-1.29,1.36-1.05,2.97-1.88,4.84-2.52,1.46-.48,2.73-.75,3.79-.82.23-.04.36-.03.39.03.1.05.19.13.26.25l1.11,2.22c.13.13.27.39.42.8h0Z"/>
    <path d="M32.24,51.07c.02.28.03.54.04.8-.09.58-.28,1.14-.57,1.68-.4.69-1,1.32-1.8,1.9-.74.56-1.64,1.06-2.69,1.5-1.19.5-2.29.84-3.33,1.02.31.11.86.43,1.65.96l1.85,1.18c.27.14.45.36.53.67.28.75.11,1.65-.51,2.72l-.13-.11c-.73-.61-1.28-1.05-1.66-1.32-1.37-.99-2.72-1.85-4.05-2.57-.85-.46-1.56-.83-2.14-1.1l-2.46,3.56-1.11,1.64-.19.52c.03.08.02.13-.02.15,0,0-.03,0-.09-.02-.02-.02-.04-.05-.07-.08l-1.51-1.42c-.13-.11-.2-.28-.22-.52-.03-.31.17-.77.6-1.36l6.43-9.03c-.3.03-1.06.28-2.31.76-.32.13-.51.25-.56.37-.01.06-.03.09-.05.09h-.03s-.05-.02-.09-.06c-.04-.05-.09-.11-.13-.18l-1.03-1.99c-.09-.19-.08-.33.05-.42,1.81-1.06,4.58-1.79,8.31-2.18.49-.04,1.11-.05,1.87-.04.59,0,1.05.04,1.37.09.52.07,1.02.17,1.51.29.51.14.98.33,1.42.59.36.23.6.44.74.65.18.22.28.42.32.6.06.25.09.47.08.65h0ZM31.12,51.52l-.35-.27s-.07,0-.14-.03c-.07-.02-.13-.04-.17-.06-.35-.15-.87-.25-1.57-.31-.48-.04-1.07-.05-1.78-.03l-1.44.12c-.3.02-.7.1-1.2.22l.07.08.1.11.02.21s-.04.08-.13.19l-3.03,3.82c.47-.06,1.01-.16,1.62-.3.61-.14,1.1-.27,1.47-.38l.55-.14c.84-.19,1.87-.58,3.11-1.18.82-.39,1.6-.86,2.34-1.42.04-.04.11-.11.22-.2.11-.09.18-.15.22-.2.06-.04.09-.09.11-.13.02-.04.02-.07.02-.09l-.03-.03h0Z"/>
    <path d="M45.83,48.83c.11.58.02.96-.26,1.12.01-.06-.02-.12-.1-.17-.76-.31-2.86-.11-6.3.62l-2.72,3.64c.16-.03.36-.08.63-.16.26-.07.81-.17,1.64-.29.83-.12,1.65-.2,2.46-.25.02,0,.04,0,.07,0,.03,0,.08,0,.17.02.08.01.15.03.2.06.05.03.1.06.14.09.04.04.06.08.04.14l.56,2.06s0,.09.01.15c0,.06-.02.13-.09.21-.06.08-.17.1-.31.06-.18-.03-.44-.04-.79-.05-.35-.01-1.18.08-2.49.27-1.31.19-2.74.51-4.28.95l-2.07,2.64c.11-.05.27-.1.48-.16.2-.06.6-.16,1.19-.32.59-.16,1.15-.29,1.69-.39.54-.11,1.13-.18,1.79-.23.66-.05,1.22-.03,1.68.05.46,0,.71.11.77.32.17.32.37,1.02.62,2.08l-.08.1s-.03-.04-.09-.05c-.89.04-1.77.11-2.64.22-.87.11-1.64.24-2.3.39-.66.14-1.23.28-1.7.41-.47.13-.89.25-1.23.36s-.53.16-.55.16h-.06c-.25.07-.6.16-1.04.3-.22.04-.43-.05-.65-.27-.26-.26-.76-.93-1.51-2.04-.09-.11-.14-.22-.15-.31-.03-.17.03-.34.2-.49l6.56-9.52-.74-1.45c-.03-.1,0-.17.1-.22,1.03-.48,1.83-.8,2.42-.95l.41-.45c.07-.12.14-.23.21-.32l.32-.06.84.46c1.71-.36,3.72-.65,6.02-.86.32,0,.51.09.59.28l.36,1.84h0Z"/>
    <path d="M58,47.81c.11.58.02.96-.26,1.12.02-.06-.02-.12-.1-.17-.76-.31-2.86-.11-6.3.62l-2.72,3.64c.16-.03.36-.08.63-.16.26-.07.81-.17,1.64-.29.83-.12,1.65-.2,2.46-.25.02,0,.04,0,.07,0,.03,0,.08,0,.16.02.08.01.15.03.2.06.05.02.1.06.14.09.04.04.06.08.04.15l.56,2.06s0,.09.01.15c0,.06-.02.13-.09.22-.06.08-.17.1-.31.05-.18-.02-.44-.04-.79-.05-.35-.01-1.18.08-2.49.27-1.31.19-2.74.51-4.28.95l-2.06,2.64c.11-.05.27-.1.48-.16.2-.06.6-.16,1.19-.32.59-.16,1.15-.29,1.69-.4.54-.1,1.13-.18,1.79-.22.66-.04,1.22-.03,1.68.05.46,0,.71.11.77.32.17.32.37,1.02.62,2.09l-.08.1s-.03-.04-.09-.05c-.89.04-1.77.11-2.64.22-.87.11-1.64.24-2.3.39-.66.15-1.23.28-1.7.41-.47.13-.89.25-1.23.36-.35.11-.53.16-.55.16h-.06c-.25.07-.6.16-1.04.3-.21.04-.43-.05-.65-.27-.26-.26-.76-.94-1.51-2.04-.09-.11-.14-.22-.14-.31-.03-.18.03-.34.2-.49l6.56-9.52-.75-1.45c-.03-.1,0-.17.1-.22,1.03-.48,1.83-.8,2.42-.95l.41-.45c.07-.12.14-.23.21-.31l.32-.06.84.46c1.71-.36,3.72-.65,6.01-.86.32,0,.51.09.59.28l.36,1.84h0Z"/>
    <path d="M73.39,46.55l-8.15,12.89s-.14.29-.4.86c-.01.06-.01.1.01.12.03.08.02.14-.02.18l-.17.04c-.44-.1-1.3-.52-2.57-1.27-.02-.02-.05-.04-.08-.05s-.07-.07-.12-.17c-.05-.1-.07-.19-.08-.29-.06-.47-.21-3-.46-7.59-1.07,1.44-3,4.56-5.8,9.37.02.02-.03.19-.16.52.03.08.02.13-.02.15-.06.04-.12.03-.18-.04l-1.85-1.21s-.09-.09-.15-.17c-.06-.07-.12-.23-.2-.46s-.02-.46.18-.7l8.05-13.03s.05-.08.09-.13c.05-.04.12-.11.24-.18.11-.08.2-.06.27.05l1.96,1.05s.06.06.19.19c.02.06.04.11.04.15l.25,8.65,6.39-10.57s.05-.09.09-.14c.05-.05.13-.12.25-.21.12-.09.22-.09.31,0l1.97,1.14s.08.05.11.09c.03.05.08.15.13.3.05.15.02.31-.11.45h0Z"/>
    <path d="M97.06,45.18c.21,1.13.1,2.05-.33,2.76-.09.13-.21.29-.38.48-.16.19-.55.55-1.17,1.08-.62.53-1.29,1-2.02,1.42-.73.42-1.7.83-2.93,1.23-1.22.4-2.51.66-3.87.77-.62.11-.98-.05-1.08-.47l-.22-.9c-1.31,1.61-2.76,3.71-4.34,6.27-.04.04-.07.1-.1.17-.03.07-.07.19-.12.35-.05.16-.05.28,0,.36.03.08.02.12-.02.12-.04.04-.11.02-.21-.07-.33-.19-.83-.64-1.51-1.36-.04-.04-.09-.09-.15-.17-.06-.07-.13-.21-.21-.4-.09-.19-.06-.35.06-.48l6.67-9.97c-1.64.47-2.54.83-2.7,1.06-.07.12-.11.2-.13.22-.06.04-.12.01-.19-.1-.35-.41-.71-1.15-1.08-2.23-.08-.27-.05-.45.1-.54,2.82-1.09,5.54-1.74,8.15-1.96.61-.05,1.07-.08,1.39-.09,1.48,0,2.69.1,3.62.32.08.01.18.04.29.08.11.04.33.12.65.26.32.13.6.27.84.42.24.15.46.35.66.6.2.25.31.51.33.79h0ZM96.04,46.13h.03c-.05-.06-.11-.11-.19-.17-.22-.08-.53-.17-.92-.28-.39-.11-1.18-.19-2.38-.26-1.2-.07-2.39,0-3.56.22.14.05.23.11.27.18.04.08.04.14,0,.18l-.05.09-3.39,4.2c1.23-.16,2.43-.41,3.59-.73,1.16-.32,2.12-.67,2.88-1.04.76-.37,1.43-.73,2.02-1.08.58-.35,1.01-.63,1.26-.85l.42-.33.02-.15h0Z"/>
    <path d="M106.57,42.75l-2.83,13.99c-3.57-1.78-6.15-2.86-7.73-3.24l-3.79,4c-.13.13-.24.26-.35.39-.1.21-.11.4-.04.57l.04.09s-.1.03-.18-.04l-2.02-2.12-.11-.23c.01-.08.06-.15.13-.22l14.38-14.36c.09-.07.17-.1.23-.11.1,0,.18,0,.24.04l1.71.95s.04.03.06.04c.02,0,.07.03.14.08.07.04.11.08.13.11.01.03,0,.05,0,.07h0ZM103.11,46.48l-5.06,4.82c.53.13,1.09.32,1.71.55.61.23,1.1.44,1.45.61l.53.25,1.38-6.23h0Z"/>
    <path d="M121.04,43.25c.04.23-.04.42-.25.55l-4.15,2.93c-.2.16-.33.17-.38.03l-1.04-1.04c-.19-.16-.21-.33-.04-.5.56-.58,1.18-1.14,1.85-1.67-.97.2-1.93.55-2.88,1.04-1.33.69-2.49,1.48-3.48,2.37-1.2,1.09-2.08,2.21-2.66,3.37-.07.12-.14.29-.22.51-.08.21-.17.58-.27,1.09-.09.51-.09.92.02,1.23.04.04.1.07.17.1.07.03.24.09.49.17.25.08.53.12.83.14.3.01.69-.01,1.18-.08.49-.07.99-.21,1.51-.41,1.02-.4,1.91-.86,2.67-1.38.96-.65,1.74-1.26,2.34-1.83-.63.09-1.27.24-1.92.46-.19.09-.28.14-.28.14-.12.03-.19,0-.22-.1l-.16-1.56c0-.4.21-.63.62-.71l5.11-.99c.19-.06.34-.07.44-.05.1.02.17.06.22.11l.04.09.28,1.22c-.03.38-.21.61-.53.7-.08.05-.17.12-.29.22-.12.1-.36.35-.71.74-.35.4-.7.84-1.03,1.32-.34.48-.71,1.15-1.14,2.01-.42.86-.8,1.77-1.13,2.75-.2-.22-.38-.54-.56-.95s-.27-.74-.29-1c-.46.36-.99.7-1.58,1.02-.9.55-1.87.87-2.89.96-.92.08-1.76-.05-2.5-.38-.82-.37-1.37-.85-1.64-1.47-.31-.39-.53-.73-.65-1.01-.25-.55-.41-1.05-.48-1.5l-.03-.38c-.1-1.2.17-2.43.82-3.69.43-.79.96-1.55,1.59-2.27.58-.62.88-.95.9-.97.57-.54,1.08-.97,1.53-1.29,1.36-1.04,2.97-1.88,4.84-2.52,1.46-.48,2.73-.75,3.79-.82.23-.04.36-.03.39.03.1.05.19.13.26.25l1.11,2.22c.13.13.27.39.42.8h0Z"/>
    <path d="M135.63,41.29c.11.58.02.96-.26,1.12.01-.06-.02-.12-.1-.17-.76-.31-2.86-.11-6.3.62l-2.72,3.64c.16-.03.36-.08.63-.16.26-.07.81-.17,1.64-.29.83-.12,1.65-.2,2.46-.25.02,0,.04,0,.07,0,.03,0,.09,0,.17.02.08.01.15.03.2.06.05.03.1.06.14.09.04.04.06.08.04.15l.56,2.06s0,.09.01.15c0,.06-.02.13-.09.22-.06.08-.17.1-.31.06-.18-.03-.44-.04-.79-.05-.35-.01-1.18.08-2.49.27-1.31.19-2.74.51-4.28.95l-2.07,2.64c.11-.05.27-.1.48-.16.2-.06.6-.16,1.19-.32.59-.16,1.15-.29,1.69-.39.54-.1,1.13-.18,1.79-.23.66-.05,1.22-.03,1.68.05.46,0,.71.11.77.32.17.32.37,1.02.62,2.09l-.08.1s-.03-.04-.09-.05c-.89.03-1.77.11-2.64.22-.87.11-1.64.24-2.3.39-.66.15-1.23.28-1.7.41-.47.13-.89.25-1.23.36-.35.11-.53.16-.55.16h-.06c-.25.07-.6.17-1.04.3-.22.04-.43-.05-.65-.27-.26-.26-.76-.94-1.51-2.04-.09-.11-.14-.22-.15-.32-.03-.17.03-.34.2-.49l6.56-9.52-.74-1.45c-.03-.1,0-.17.1-.22,1.03-.48,1.83-.8,2.42-.95l.41-.45c.07-.12.14-.23.21-.31l.32-.06.84.46c1.71-.36,3.72-.65,6.01-.86.32,0,.51.09.59.28l.36,1.84h0Z"/>
    <path d="M147.89,39.39c.01.39-.1,1.03-.34,1.9-.08.28-.19.52-.36.71-.11.13-.35.21-.72.24-.57.05-1.37.21-2.39.5-.1.03-.17.01-.21-.04,0-.06,0-.12.04-.18.26-.2.69-.46,1.3-.79-1.25-.07-2.58-.05-3.97.07-1.55.13-2.76.37-3.62.72,2.63.63,4.59,1.35,5.88,2.15.56.37,1.01.78,1.32,1.22.03.06.06.13.11.21.05.08.11.24.19.46.08.22.12.41.14.57.23.83.05,1.71-.54,2.64-.59.93-1.32,1.71-2.19,2.35-.88.64-1.72,1.1-2.53,1.39-.11.05-.26.1-.45.16-.18.06-.51.14-.97.24s-.88.17-1.23.18c-.63.01-1.26-.07-1.89-.26-.71-.2-1.24-.46-1.58-.79-.42-.3-.73-.74-.94-1.32-.36-.98-.43-2.08-.22-3.31,0-.02,0-.04,0-.07,0-.03.02-.04.04-.02.04,0,.06.01.06.05.07.84.44,1.53,1.09,2.05.66.52,1.46.74,2.4.66.41-.04.86-.1,1.33-.2.48-.1,1.09-.28,1.86-.54.76-.26,1.51-.67,2.24-1.21.74-.55,1.37-1.2,1.9-1.96l.02-.15s-.03-.05-.08-.08c-.05-.04-.22-.13-.5-.27-.28-.14-.65-.31-1.11-.49s-1.17-.41-2.14-.7c-.96-.28-2.07-.59-3.33-.92-.55-.17-.85-.4-.92-.69l-.34-1.6c-.13-.58-.1-.99.07-1.22.39-.55,1.3-1.04,2.73-1.48,1.54-.52,3.3-.87,5.29-1.04,1.18-.1,2.34-.1,3.47,0,.1,0,.21,0,.34.02.13.02.3.1.51.24.21.14.29.34.23.6h0Z"/>
    <path class="cls-1" d="M15.66,50.59c.04.23-.04.42-.25.56l-4.15,2.93c-.21.16-.33.17-.38.03l-1.04-1.04c-.19-.16-.21-.33-.04-.5.56-.58,1.18-1.14,1.85-1.67-.97.2-1.93.55-2.88,1.04-1.33.69-2.49,1.48-3.48,2.37-1.19,1.09-2.08,2.21-2.66,3.37-.07.12-.14.29-.23.51-.08.22-.17.58-.26,1.09-.1.51-.09.92.01,1.23.04.04.1.07.17.1.07.03.24.09.49.17.25.08.53.12.83.14.3.01.69-.01,1.18-.08.49-.07.99-.21,1.51-.41,1.02-.4,1.91-.86,2.67-1.38.96-.66,1.74-1.26,2.34-1.83-.63.09-1.27.24-1.92.46-.19.1-.28.14-.28.14-.12.03-.19,0-.22-.1l-.16-1.56c0-.4.21-.63.62-.71l5.11-.99c.19-.06.34-.07.44-.05.1.02.17.06.22.11l.04.09.28,1.22c-.03.38-.21.61-.54.7-.07.05-.17.12-.29.22-.12.1-.36.35-.71.74-.35.4-.7.84-1.03,1.32-.34.48-.71,1.15-1.14,2.01-.42.86-.8,1.77-1.13,2.75-.2-.22-.38-.54-.55-.95-.17-.41-.27-.74-.29-1-.47.36-.99.7-1.58,1.02-.9.55-1.87.87-2.89.96-.92.08-1.76-.05-2.5-.38-.82-.37-1.37-.85-1.64-1.46-.31-.39-.53-.73-.65-1.02-.24-.55-.41-1.05-.48-1.5l-.03-.38c-.1-1.2.17-2.43.82-3.69.43-.79.96-1.54,1.59-2.27.58-.62.88-.94.9-.97.57-.54,1.08-.97,1.52-1.29,1.36-1.04,2.97-1.88,4.84-2.51,1.47-.48,2.73-.75,3.79-.82.23-.04.36-.03.39.03.1.05.19.13.26.25l1.11,2.22c.13.13.27.39.42.79h0Z"/>
    <path class="cls-1" d="M31.05,49.65c.02.28.04.54.04.8-.09.58-.28,1.14-.57,1.68-.4.69-1,1.32-1.8,1.9-.74.56-1.64,1.06-2.69,1.5-1.19.5-2.29.84-3.33,1.02.31.11.86.43,1.66.96l1.85,1.18c.27.14.45.36.53.67.28.75.11,1.65-.51,2.72l-.13-.11c-.72-.61-1.28-1.05-1.66-1.32-1.37-.99-2.72-1.85-4.05-2.57-.85-.46-1.56-.83-2.14-1.1l-2.46,3.56-1.11,1.64-.19.52c.03.08.02.13-.02.15,0,0-.03,0-.09-.02-.02-.02-.04-.05-.07-.08l-1.51-1.42c-.13-.11-.2-.28-.22-.51-.03-.32.17-.77.6-1.36l6.43-9.03c-.29.02-1.07.28-2.31.76-.33.13-.51.25-.56.37-.01.06-.03.09-.05.09h-.03s-.05-.02-.09-.06c-.04-.05-.09-.11-.13-.18l-1.03-1.99c-.1-.19-.08-.33.05-.42,1.81-1.06,4.58-1.79,8.31-2.18.49-.04,1.11-.05,1.87-.04.59,0,1.05.04,1.37.09.52.08,1.02.17,1.51.29.51.13.98.33,1.42.59.36.23.6.45.74.65.18.22.28.42.32.6.06.25.09.47.08.65h0ZM29.93,50.1l-.35-.27s-.06,0-.14-.03c-.07-.02-.13-.04-.17-.06-.35-.15-.87-.25-1.57-.31-.48-.04-1.07-.05-1.78-.03l-1.44.12c-.3.02-.69.1-1.2.22l.07.08.1.11.02.21s-.04.08-.13.19l-3.03,3.82c.47-.06,1.01-.16,1.62-.3.61-.14,1.1-.27,1.47-.38l.55-.13c.83-.19,1.87-.58,3.11-1.18.82-.39,1.6-.86,2.35-1.41.04-.04.11-.11.22-.2.11-.09.19-.15.22-.2.05-.04.09-.09.11-.13.02-.04.02-.07.02-.09l-.03-.03h0Z"/>
    <path class="cls-1" d="M44.64,47.41c.11.58.02.96-.26,1.12.01-.06-.02-.12-.1-.17-.76-.31-2.86-.11-6.3.62l-2.72,3.64c.16-.03.36-.09.62-.16.26-.07.81-.17,1.64-.29.83-.12,1.65-.2,2.46-.25.02,0,.04,0,.07,0,.03,0,.08,0,.16.02.08.01.15.03.2.06.05.03.1.06.14.09.04.04.06.08.04.15l.56,2.06s0,.09.01.15c0,.06-.02.13-.09.22-.06.08-.16.1-.31.05-.18-.02-.44-.04-.79-.05-.35-.01-1.18.08-2.49.27-1.31.19-2.74.51-4.28.95l-2.07,2.64c.11-.05.27-.1.48-.16.2-.06.6-.16,1.19-.32.59-.16,1.15-.29,1.69-.39.54-.1,1.13-.18,1.79-.23.66-.04,1.22-.03,1.68.05.46,0,.71.11.77.32.17.32.37,1.02.62,2.09l-.08.1s-.03-.04-.09-.05c-.89.04-1.77.11-2.64.22-.87.11-1.64.24-2.3.39-.66.15-1.23.28-1.7.41-.47.13-.88.25-1.23.36-.35.11-.53.16-.55.16h-.06c-.25.07-.6.16-1.04.3-.22.04-.43-.05-.65-.27-.26-.26-.76-.94-1.51-2.04-.09-.11-.14-.22-.14-.31-.04-.18.03-.34.2-.49l6.56-9.52-.75-1.45c-.03-.1,0-.17.1-.22,1.03-.48,1.83-.8,2.41-.95l.41-.45c.07-.12.14-.23.21-.31l.32-.06.84.46c1.71-.36,3.72-.65,6.02-.86.32,0,.51.08.59.28l.36,1.84h0Z"/>
    <path class="cls-1" d="M56.81,46.38c.11.58.02.96-.26,1.12.01-.06-.02-.12-.1-.17-.76-.31-2.86-.11-6.3.62l-2.72,3.64c.15-.03.36-.08.62-.16.26-.07.81-.17,1.64-.29.83-.12,1.65-.2,2.46-.25.02,0,.04,0,.07,0,.03,0,.08,0,.16.02.08.01.15.03.2.06.05.03.1.06.14.09.04.04.06.08.04.15l.56,2.06s0,.09.01.15c0,.06-.02.13-.09.22-.06.08-.16.1-.31.06-.18-.02-.44-.04-.79-.05-.35-.01-1.18.08-2.49.27-1.31.19-2.74.51-4.28.95l-2.06,2.64c.11-.05.27-.1.48-.16s.6-.16,1.19-.32c.59-.16,1.15-.29,1.69-.39.54-.1,1.13-.18,1.79-.23.66-.05,1.22-.03,1.68.05.46,0,.71.11.77.32.17.32.37,1.02.62,2.09l-.08.09s-.03-.04-.09-.05c-.89.03-1.77.11-2.64.22-.87.11-1.64.24-2.3.39-.66.15-1.23.28-1.7.41-.47.13-.89.25-1.23.36-.35.11-.53.16-.55.16h-.06c-.25.07-.6.16-1.04.3-.21.04-.43-.05-.65-.27-.26-.25-.76-.93-1.51-2.04-.09-.11-.14-.22-.15-.32-.03-.17.03-.34.2-.49l6.56-9.52-.74-1.45c-.03-.1,0-.17.1-.22,1.03-.48,1.83-.8,2.42-.95l.41-.45c.07-.12.14-.23.21-.31l.32-.06.84.46c1.71-.36,3.72-.65,6.01-.86.32,0,.51.09.59.28l.36,1.84h0Z"/>
    <path class="cls-1" d="M72.21,45.12l-8.15,12.89s-.13.29-.4.86c-.01.06-.01.1.01.12.03.08.02.14-.01.18l-.17.04c-.44-.1-1.3-.52-2.57-1.27-.02-.02-.05-.04-.08-.05-.03-.02-.07-.07-.12-.17-.05-.09-.08-.19-.08-.29-.06-.47-.21-3-.46-7.59-1.07,1.44-3,4.56-5.81,9.37.02.02-.03.19-.16.52.03.08.02.13-.02.15-.06.04-.12.03-.18-.04l-1.85-1.21s-.09-.09-.15-.17c-.06-.07-.12-.23-.2-.46-.08-.23-.02-.46.18-.7l8.05-13.03s.05-.08.09-.13c.05-.04.12-.11.24-.18.11-.08.2-.06.27.05l1.96,1.05s.06.06.19.19c.03.06.04.11.04.15l.25,8.65,6.39-10.57s.05-.09.09-.14c.05-.05.13-.13.25-.21.12-.09.22-.09.31,0l1.97,1.14s.08.05.11.09c.03.05.08.15.13.3.05.15.02.31-.11.46h0Z"/>
    <path class="cls-1" d="M95.87,43.75c.21,1.13.1,2.05-.33,2.76-.09.13-.21.29-.38.48-.16.19-.55.55-1.17,1.08-.62.53-1.29,1-2.02,1.42-.73.42-1.7.83-2.93,1.23-1.22.4-2.51.66-3.87.77-.62.11-.98-.05-1.08-.47l-.23-.9c-1.31,1.61-2.76,3.7-4.34,6.27-.04.04-.07.1-.1.17-.03.07-.07.19-.12.35-.05.16-.05.28,0,.36.03.08.02.12-.02.12-.04.04-.11.02-.21-.07-.33-.19-.84-.64-1.51-1.36-.04-.04-.09-.09-.15-.17-.06-.08-.13-.21-.21-.4-.09-.19-.06-.35.06-.48l6.67-9.97c-1.64.47-2.54.83-2.7,1.06-.07.12-.11.2-.13.22-.06.05-.12.01-.19-.1-.35-.41-.71-1.15-1.08-2.22-.08-.27-.05-.45.1-.54,2.82-1.09,5.54-1.74,8.15-1.96.61-.05,1.07-.08,1.39-.09,1.48,0,2.69.1,3.62.32.08.01.18.04.29.08.11.04.33.13.65.26.32.13.6.27.84.42.24.15.46.35.66.6.2.25.31.51.33.79h0ZM94.86,44.7h.03c-.04-.06-.11-.11-.19-.16-.22-.08-.53-.17-.91-.28-.38-.11-1.18-.19-2.38-.26-1.2-.07-2.39,0-3.56.22.14.05.23.11.27.19.04.08.04.13,0,.18l-.05.09-3.39,4.2c1.23-.16,2.43-.41,3.59-.73,1.16-.32,2.12-.67,2.88-1.04.76-.37,1.43-.73,2.02-1.08.58-.35,1.01-.63,1.26-.85l.42-.33.02-.15h0Z"/>
    <path class="cls-1" d="M105.38,41.32l-2.83,13.98c-3.57-1.78-6.15-2.86-7.72-3.24l-3.79,4c-.13.13-.24.26-.35.39-.1.21-.12.4-.04.57l.04.09s-.1.03-.18-.04l-2.02-2.12-.11-.23c.01-.08.06-.15.13-.22l14.38-14.36c.09-.07.17-.1.23-.11.1,0,.18,0,.24.04l1.71.96s.04.03.06.04c.02,0,.07.03.14.08.07.04.12.08.13.11.01.03,0,.05,0,.08h0ZM101.92,45.06l-5.06,4.82c.53.13,1.1.32,1.71.55.61.24,1.1.44,1.45.61l.53.25,1.38-6.23h0Z"/>
    <path class="cls-1" d="M119.85,41.83c.04.23-.04.42-.25.56l-4.15,2.93c-.21.16-.33.17-.38.03l-1.04-1.04c-.19-.16-.21-.33-.04-.5.57-.58,1.18-1.14,1.85-1.67-.97.2-1.93.55-2.88,1.04-1.33.68-2.49,1.48-3.48,2.37-1.2,1.09-2.08,2.21-2.66,3.37-.07.12-.14.29-.23.51-.08.21-.17.58-.26,1.09-.1.51-.09.92.01,1.23.04.04.1.07.17.1.07.03.24.09.49.17.25.08.53.12.83.14.3.01.69-.01,1.18-.08.49-.07.99-.21,1.51-.41,1.01-.4,1.91-.86,2.67-1.38.95-.66,1.73-1.27,2.34-1.83-.63.09-1.27.24-1.92.46-.19.09-.29.14-.29.14-.12.03-.19,0-.22-.1l-.16-1.56c0-.4.21-.63.62-.71l5.11-.99c.19-.06.34-.07.44-.05.1.02.17.06.22.12l.04.09.28,1.22c-.03.38-.21.61-.53.7-.08.05-.17.12-.29.22-.12.1-.36.35-.71.74-.35.4-.7.83-1.03,1.32-.34.48-.72,1.15-1.14,2.01-.42.86-.8,1.77-1.13,2.75-.2-.22-.38-.54-.56-.95s-.27-.74-.29-1c-.47.35-.99.7-1.58,1.02-.9.55-1.87.87-2.89.96-.92.08-1.76-.05-2.5-.38-.82-.37-1.37-.85-1.64-1.46-.31-.39-.53-.73-.65-1.02-.25-.55-.41-1.05-.48-1.5l-.03-.38c-.1-1.2.17-2.43.82-3.69.43-.79.96-1.55,1.59-2.27.58-.62.88-.95.9-.97.57-.54,1.08-.97,1.53-1.29,1.36-1.04,2.97-1.88,4.84-2.51,1.46-.48,2.73-.75,3.79-.82.23-.04.36-.03.39.03.1.05.19.13.26.25l1.11,2.22c.13.13.27.39.42.8h0Z"/>
    <path class="cls-1" d="M134.44,39.86c.11.59.02.96-.26,1.12.01-.06-.02-.12-.1-.17-.76-.31-2.86-.11-6.3.62l-2.72,3.64c.15-.03.36-.09.62-.16.26-.07.81-.17,1.64-.29s1.65-.2,2.46-.25c.02,0,.04,0,.07,0,.03,0,.08,0,.16.02.08.01.15.03.2.06.05.03.1.06.14.09.04.04.06.09.04.15l.56,2.06s0,.09.01.15c0,.06-.02.13-.09.22-.06.08-.16.1-.31.05-.18-.02-.44-.04-.79-.05-.35,0-1.18.08-2.49.27-1.31.19-2.74.51-4.28.95l-2.07,2.64c.11-.05.27-.1.48-.16.2-.06.6-.17,1.19-.32.59-.16,1.15-.29,1.69-.39.54-.1,1.13-.18,1.79-.22.66-.05,1.22-.03,1.68.05.46,0,.71.11.77.32.17.32.37,1.02.62,2.09l-.08.1s-.03-.04-.09-.05c-.89.04-1.77.11-2.64.22-.87.11-1.64.24-2.3.39-.66.14-1.23.28-1.7.41-.47.13-.89.25-1.23.36-.35.11-.53.16-.55.16h-.06c-.25.07-.6.16-1.04.3-.22.04-.43-.05-.65-.27-.26-.26-.76-.93-1.51-2.04-.09-.11-.14-.22-.15-.31-.03-.18.03-.34.2-.49l6.56-9.52-.75-1.45c-.03-.1,0-.17.1-.22,1.03-.48,1.83-.8,2.42-.95l.41-.45c.07-.12.14-.23.21-.31l.32-.06.84.46c1.71-.36,3.72-.65,6.02-.86.32,0,.51.09.59.28l.36,1.84h0Z"/>
    <path class="cls-1" d="M146.7,37.97c.01.39-.1,1.03-.35,1.9-.07.28-.19.52-.36.71-.11.13-.35.21-.72.24-.57.05-1.37.21-2.39.5-.1.03-.17.01-.21-.04,0-.06.01-.12.04-.18.26-.2.69-.46,1.3-.79-1.25-.07-2.58-.05-3.97.07-1.55.13-2.76.37-3.62.72,2.63.63,4.59,1.35,5.88,2.15.57.37,1.01.78,1.32,1.22.02.06.06.13.11.21.05.09.11.24.19.46.08.22.12.41.14.57.23.83.05,1.71-.54,2.64-.58.93-1.31,1.71-2.19,2.35s-1.72,1.1-2.53,1.38c-.12.05-.26.1-.45.16-.18.05-.51.14-.97.25-.47.11-.88.17-1.23.18-.63.01-1.26-.07-1.89-.26-.71-.2-1.24-.46-1.58-.79-.42-.3-.73-.74-.94-1.32-.36-.98-.43-2.08-.22-3.31,0-.02,0-.04,0-.08,0-.03.02-.04.04-.02.04,0,.06.01.06.05.07.84.44,1.53,1.09,2.05.66.52,1.46.74,2.4.66.41-.03.86-.1,1.33-.2.48-.1,1.09-.28,1.86-.54.76-.26,1.51-.67,2.24-1.21.74-.55,1.37-1.2,1.9-1.96l.02-.15s-.03-.05-.08-.08c-.05-.03-.22-.12-.5-.27-.28-.14-.65-.31-1.11-.48-.46-.18-1.17-.41-2.14-.7-.96-.28-2.07-.59-3.33-.92-.55-.17-.85-.4-.92-.7l-.34-1.6c-.13-.58-.1-.99.08-1.22.39-.55,1.3-1.04,2.73-1.48,1.54-.53,3.3-.87,5.29-1.04,1.18-.1,2.34-.1,3.47,0,.1,0,.21,0,.34.02.13.02.3.1.51.24.21.14.29.34.23.6h0Z"/>
  </g>
</svg>
