<?xml version="1.0" encoding="UTF-8"?>
<svg id="Layer_2" data-name="Layer 2" xmlns="http://www.w3.org/2000/svg" viewBox="0 0 119.25 175.6">
  <defs>
    <style>
      .cls-1 {
        fill: #257500;
        stroke: #40c900;
        stroke-linecap: round;
        stroke-linejoin: round;
        stroke-width: 1.04px;
      }
    </style>
  </defs>
  <g id="Layer_1-2" data-name="Layer 1">
    <path class="cls-1" d="M49.01,153l-.1.04h-.15s-.05.04-.05.04l.03.08.02.15.04.09h0s.19-.24.19-.24l.03-.14h-.01.01ZM45.48,143.54l-.19-.07-.11-.09-.15-.07-.14-.03-.04.05.03.05.21.16h.12l.19.05h.2s-.01-.06-.01-.06h-.11ZM17.5,73.13v.21h.01s.11.23.11.23l.03-.05h0s-.08-.06-.08-.06l.08-.27-.15-.05h0ZM16.9,72.33l-.02.04h-.06s-.05.05-.05.05v.14s-.01.01-.01.01l.08.06h.11s.11-.2.11-.2h-.01.01l-.15-.1h0ZM8.9,73.55l-.07.07v.05s0,.03,0,.03v-.03s.03.01.03.01l-.03.03.09-.15h-.01s0-.01,0-.01h0ZM118.69,149.54l.03-.22-.4-.35-.14-.2-.13-.12-.22-.16-1.03-.98-.17-.27-.06-.06-.25-.22-.05-.06-.1-.14-.05-.05-.05-.02-.06-.02-.19-.03-.08-.04-.06-.09-.05-.11v-.21s-.01-.15-.01-.15h.01s.1-.26.1-.26l.1-.22-.11-.19h-.03s-.02-.36-.02-.36l-.12-.19-.16-.16-.14-.3v-.11l.08-.39v-.14l-.05-.09-.05-.08-.65-1.95-.36-.11-.26-.21-.14-.34.04-.47-.02-.21-.08-.27-.12-.25-.19-.13-.2-.1-.07-.21.11-1.97v-.12s-2.22-2.7-2.22-2.7l-2.2-2.72-2.29-2.83-2.13-2.69-1.88-2.39-1.88-2.4-1.87-2.4-1.85-2.39-1.86-2.4-1.85-2.42-1.84-2.4-1.83-2.4-2.12-2.65-2.09-2.65-2.09-2.65-2.07-2.67-2.08-2.65-2.07-2.66-2.06-2.67-2.04-2.66-2.64-3.2-2.63-3.2-2.62-3.21-2.6-3.21-2.59-3.21-2.58-3.22-2.56-3.23-2.55-3.23.04-.22.17-.91.55-3,.54-2.99.55-2.99.55-2.99.55-2.99.55-2.99.55-2.99.54-2.99.55-2.98.55-2.98.54-2.99.55-2.98.55-2.98.53-2.96.55-2.98.54-2.96-3.27-.61-3.28-.61-3.26-.61-3.26-.63-3.28-.62-3.26-.65-3.26-.65-6.53-1.32-3.26-.67-3.26-.67-3.25-.69-3.26-.7-6.5-1.42-3.25-.71-.06-.03-.35-.07.07.32v.17s0,.19,0,.19l-.39,1.47-.16.25-.43.55-.44.36-.02.1.39.26.52.59.39.65-.06.46-.08.25.08.42.06.4.08.18.02.1-.1.42-.02.16.04.16.08.15.1.13.13.1-.24.25-.04.52v1.02s-.15.47-.15.47l-.46.87-.29.82-.52,1.03-.36.51-.27.57-.26.2-.09.25-.05.3v.23s-.06.22-.06.22l.27.72.05.37-.1.36-1.28,2.24-.76.75-.21.32.26-.07.27-.24.78-.86.08-.04.51.17.15-.04.1.13.05.02-.29.32-.26.09h-.29s-.36.04-.36.04l-.22.16-.46.57-.17.11-.18.64-.17.29-.26-.2-.15-.2.02-.06.14-.31.07-.11-.49.41-.31.35-.28.46v.05s.04.09.04.09v.08s-.05.01-.05.01h-.05l-.05.04-.05.05-.06.17-.5.56-.15.21-.23.41-.21.41-.09.26-.11.23-.19.25-.14.24v.22s.11.38.11.38l.15,1.06v.42l-.31.72-.05.38.16.22.16.14,1.36,1.86.61.57.19.27.34.82v.12s-.04.37-.04.37l.03.15.09.08.29.17.1.09.32.47,1.24,3.03v.29s-.09.72-.09.72l.05.4.05.22.06.11.14.09.04.15.03.17.04.18.02.27-.29,1.13.15,1.02-.07.14-.22.11-.21.32-.31.68-.38,1.1-.32.54.12.63-.07.29.09.14.05.25.04.46v.77l.05.37.17.19.24,1.22v.17s-.15.55-.15.55v.16s.04.36.04.36v.17l-.15.4-.17.19-.21.11-.24.25-.05.5.25.62.68,1.17.57.7.07.2.06.26.22.31.41.45.31.49,1.57,3.37.35.47,1.4,1.15.3.5.12,1.03.26.39-.19.81.1.29v-.11s.1-.34.1-.34l.65.68.17.31.03.14v.32l.02.15.28.51.4,1.12.4.74.14.39v.4l-.16-.37-.27-.36-.22-.4-.03-.46-.09-.3-.54-.83-.21-.28.19,1.05-.05.45-.77,1.52-.5.57-.14.23.35.1h.1l.11-.05.03-.04v-.04s.21-.19.21-.19l.1-.12.14-.12.21-.1-.09-.08-.04-.07-.09-.25h.12s.1-.06.1-.06l.1-.08.1-.11.14.54.3.4.75.58.06.08.14.18.1.22.04.46.12.17.29.23.14.19.22.52.15.11.16-.07.11-.21v-.26l.6.76.3.5.39.4.15.21.2.23.29.16.3.04.22-.15.04-.29-.1-.26-.05-.21.21-.16.06.27.15.14.14-.06.03-.26-.1-.26-.34-.42-.14-.25.1-.02.14-.1.09-.04-.1-.2.05-.18.16-.12.4-.05-.1-.17-.3-.31-.04-.32.19-.95.03-.43.51.09h.35s.3-.2.3-.2l.34-.4,1.22,1.06.18.32.02.16.11.16.17.12.4.16.61.42.26.05h.17l.17-.08.55-.33.1-.09.09-.12.15-.31.06-.09.15-.09.26-.07.26-.05.2.04.19.21-.03.21-.35.47.56.3.65.18-.15.17-.08.06-.11.05.15.09.21.02h.25s.21-.05.21-.05l.05-.18h.16l.45.18.18.03h.51l.3-.1.35-.27.52-.57.07.03-.14.36-.18.29-.24.21-.29.14-.15.03h-.31s-.14.1-.14.1l-.06.14v.15s.02.11.02.11l.1.08h.6s.34-.04.34-.04l.16-.15.05-.22.06-.11.22-.19.1-.04.07.05.07.06.1.05h.07s.12-.14.12-.14l.06-.02.31.05.21.11.16.14.75.93.21.12.11.15.17.31.12.31-.02.12-.2-.14-.22-.26-.2-.31-.07-.25h-.24l-.27-.2-.39-.45-.04-.11v-.14l-.03-.14-.12-.11h-.14s-.12.04-.12.04l-.1.08-.09.03-.29-.08-.15.02-.09.13-.04.14-.06.16-.06.14-.07.05h-.12s-.15.02-.15.02l-.12.07-.06.1.06.05.36.2-.29.09-.27-.09-.49-.31-1.56-.48-.59-.34-1.56-.51-.31.02-.69.27-.32.02-.25-.14-.41-.5-.26-.14h-.3s-.22.08-.22.08l-.75.5-.15.04h-.19s-.13-.08-.13-.08l-.11-.09h-.1s-.19.33-.19.33l-.2.23-.25.16h-.23l.24.64.47.35.37.4-.04.81-.3.57-.09.36.21.2.26.1.62.4.22.2-.59.11.08.04.17.14-.14.22.1.06h.36s.14.15.14.15l.05.15.12.68.17,2,.1.39.16.27.32.06.07.05.05.09.05.15v.09l-.04.1-.02.1.04.05.1.04.2.15-.22.12h-.29s-.27-.06-.27-.06l-.24-.16-.11-.24-.09-.31-.11-.24-.17-.03-.12-.14-.11-.18-.12-.11-.31.06-.05-.14v-.2s-.04-.15-.04-.15l-.17-.15-.14-.05-.08-.1.03-.29-.08-.07-.45-.03-.15-.04-.15-.37-.07-.1-.1-.06-.24-.06-.1-.08-.14-.19v-.26s-.05-.22-.05-.22l.02-.16.3-1.02.06-.14.11-.07.22-.04-.21-.04-.05-.1.04-.13v-.14s-.03-.7-.03-.7l-.1-.2-.26-.11-.56-.09h-.29l-.22.1-.36.6-.06.72.04.75-.08.64-.15.29-.32.43-.14.37-.06.75.12.17.16.06.16.04.14.09.14.32v.74l.09.34.12.3.06.36v.37l-.04.34-.21.7-.26.61-.14.61.17.67.32.4.14.25v.33s.1.22.1.22l.72.82.55,1.11.32.49.88.83.24.15.29.1h.32l.31-.05.26.03.19.25.48-.19.4.04.32.27.27.52.47,1.61.22.51-.47.96.1.09.11.05h.12l.12-.05.03.14v.11l-.04.1-.08.1-.3-.15-.19-.06-.14.15-.22.77-.19.31-.21.27-.24.22-.3.09-.2-.16-.16-.25-.25-.15-.24.09-.24.22-.36.57.2.11.15.16.14.11.11.15v.24s-.08.14-.08.14l-.26-.02-.09.14v.3s.15.85.15.85v.72l-.11.72v.14l.07.51v.32s0,.1,0,.1l.06.18.12.14.12.1.1.12v.24l.02.17.11.2.15.15.37.2,1.11,1.11.3.5.46,1.27.1.63.1.32.19.17.31.1.24.17.19.21.12.25.09.29.05.34v.36s-.02.39-.02.39v.33s.16.29.16.29l.37.49.22.53.15.25.42.35.09.4v.75l.32,1.09.27.11.7.56.46.17.31.5.25.86.36.63.29.59.31.43.34.34.89.32.31.21.12.24.04.26.04.46.06.21.2.41.06.25-.23.1h-.21s-.06-.12-.06-.12l.17-.26-.08-.12-.57,1-.14.58v.29s.07.27.07.27l.29.39.75.48.3.31.08-.06.25-.04h.3s.2.07.2.07l.1.11.2.31.11.07.22.14.09.1.03.52-.04.58-.16.63-.21.63-.61.96-.12.37.04.15.34.44.09.14.05.15.04.15v.18l-.1.39-.32.61-.12.36.12.27.09.33.05.34-.12.42-.18.27-.16.21-.14.24-.24.5-.17.25.05.21.14.19.34.17.39.2.31.05.44.5.29.63.2.7.58.12,1.33-.04,2.06.25.65.18.54.34.73-.08.75.42,1.27.96h.26l.32-.08.31-.02.21.14.15.17.27.25.31.21.24.07.19-.09.14-.14.16-.1.71-.04.27.15.34.04.16.05.14.1.26.32.8.55.47.24,1.38,1.76.18.12.32.05.15.05.12.11.02.15-.02.18v.16s.17.14.17.14l-.1.17v.24l.09.25.1.24.04.11v.21s.04.09.04.09l.06.06.12.05.07.06.51.66.32.26.44.1-.19-.07-.11-.06h-.1l-.04-.16.44.17,1.02.9,1.31.64.67.19.5.32.2.27.29-.1.29-.08,2.04.11.19.05.12.09.11.02.16-.04.22-.09.32.14.37.35.36.45.39.91.19.82.19.66.04.31-.02.25-.1.54-.15.21-.24.19-.11.26.21.41.09.07.14.07.15.04.15-.05h.15s.11.16.11.16l.11.21.13.11.12.06.15.1.15.07h.16s.09-.11.09-.11l.04-.12v-.16s.19-.47.19-.47l.1-.09h.19l.11-.02.12-.05h.14s.3.3.3.3l.22.04h.29s.36.1.36.1l.24.16,1.58,2.18.41.46,1.51,1.12.57.64.45.83.26.2.55.47.2.21.67.98,1.13,1.11,1.57,3.06.5,1.68.14.9v.31s.07.22.07.22l.1,1.73-.05.26-.19.31-.19.15-.14.16-.04.36.26.58v.25s-.06.33-.06.33l-.22.72v.17s.1.31.1.31l.03.22.09-.13.16-.51.16-.16.2-.06h.1s.24.1.24.1l.21.18.3.19.12.16.19.36.14.41v.31l-.12.12-.17-.07-.08-.24-.15-.35-.1-.34-.15-.17v-.22s-.24-.15-.24-.15l-.2-.04-.16.16-.14.15.4.06.27.27.17.41.16.53v.42s-.12.39-.12.39v.48s.1.14.1.14l1.05.06,1.03.06,1.05.07,1.05.06,1.03.06,2.09.12,1.05.07,1.03.06,1.05.06,1.05.05,1.03.06,1.05.06,1.05.06,1.05.05,2.08.12,1.05.05,1.03.05,1.05.06,1.05.05,1.03.05,1.05.06,1.05.05,1.03.05,2.09.1,1.03.05,1.05.05,1.05.04,1.03.05,1.05.05.57.02v.02l.09-.21.58-.31,1.42.48.61-.05.16-.24.06-.3.03-.3.09-.29.21-.2.57-.29.19-.2.09-.35-.09-1.1.05-.21.05-.15.03-.16-.03-.23-.31-.61-.45-.33-1.26-.26-.52-.29-.34-.65.12-.57.29-.6.17-.71v-.97s-.07-.24-.07-.24l-.38-.56v-.25l.2-.45.19-.15.07-.14-.06-.19-.09-.15-.12-.24-.04-.2.15-.08.68.05.36-.06.27-.15.64-.91.19-.39.16-.15.31-.25.23-.21.06-.11.07-.21-.03-.38.04-.22.12-.08.06-.07.04-.19.04-.36.11-.4.19-.21.19-.17.12-.22-.11-.32-.04-.19.09-.07.06-.09.04-.19v-.2s-.03-.1-.03-.1l-.15-.2v-.41s.06-.42.06-.42v-.25l.29-.17.12-.14v-.15l-.22-.36-.09-.2-.03-.2.14-.36.25-.2.6-.29.25-.2.26-.24.2-.3.2-.7.18-.29.25-.21.52-.09,1.54-.82.27-.04.51-.51.52-.4.47-.28.15-.21-.04-.36h0ZM43.29,142.36l-.1-.06-.16-.05-.22.09-.61.36-.11.03h-.16l-1.1-.76-.27-.08-.58-.07-.24-.09-.66-.53-.37-.09h-.11l-.1.04-.16.1-.1.09.07.07.22.09.15.16.12.2.1.24-.25.4.28.39.54.31.47.15,3.14-.07.35-.1.17-.17.05-.24-.04-.04-.31-.35h0ZM32.95,140.69l-.11-.11-.14-.1-.15-.09-.07-.14-.06-.16-.12-.15-.11.3-.2.07-.42-.05-.29.15-.07.16.11.06.21-.15.36.25.35.14.85.14-.05-.17-.07-.15h0ZM36.7,142.17l-.1-.4.1-.42-.25.14-.25.05-.83-.1-.18.04-.16.06-.22.04-.3-.06-.55-.21-.29.06.22.29.24.42.2.44.05.33.1.19.25.26.31.2h.25l.16-.09h.14s.15.07.15.07l.22.07h.15s.81-.37.81-.37l.2-.15.15-.24.1-.39-.41.02-.26-.25h0ZM57.93,155.94l-1.11-.66-.23-.1-.82-.72-.35-.15h-.34s-.15.2-.15.2l.12.24.29.24.34.17.26.09.35.15.09.26-.09.7v.39s.09.31.09.31l.16.23.3.11h.14s.37-.11.37-.11h.15s.17.06.17.06l.42.37.26.09.24-.05.1-.22-.61-1.35-.16-.23h0ZM42.26,155.65l-.41-.25-.05-.07-.2-.19-.15.09-.18.04-.17-.02-.17-.11.08.51.27.41.41.3.5.17.48-.07-.06-.36-.35-.44h0ZM55.81,164.78l-.4-.77-.58-.62-.24-.33-.12-.49-.06-.13-.06-.17-.05-.2v-.16l-.04-.15-.15-.07-.19-.06-.15-.11-.1.38.15.46.19.45.14.67.41.82.15.64.26.31.31.26.25.15.14.04.1-.03.1-.04h.1s.38.06.38.06h.17l.17-.06-.56-.61-.32-.24h0Z"/>
  </g>
</svg>
