<?xml version="1.0" encoding="UTF-8"?>
<svg id="Layer_2" data-name="Layer 2" xmlns="http://www.w3.org/2000/svg" viewBox="0 0 55.58 93.85">
  <defs>
    <style>
      .cls-1 {
        fill: #257500;
        stroke: #40c900;
        stroke-linecap: round;
        stroke-linejoin: round;
        stroke-width: 1.04px;
      }
    </style>
  </defs>
  <g id="Layer_1-2" data-name="Layer 1">
    <polygon class="cls-1" points="54.46 60.18 54.25 59.58 54.28 59.38 54.42 59.1 54.45 58.91 54.37 58.23 54.26 58.03 53.84 57.75 53.66 57.57 53.56 57.31 53.38 56.7 53.22 56.43 52.77 56.07 52.55 55.97 52.45 55.9 52.37 55.77 52.34 55.13 53.09 54.22 53.03 53.51 52.67 52.99 52.57 52.72 52.67 52.37 52.88 52.09 53.63 51.63 53.66 51.56 53.6 50.92 53.34 48.53 53.07 46.15 52.82 43.76 52.29 38.98 52.03 36.59 51.77 34.21 51.51 31.82 51.25 29.44 50.98 27.06 50.72 24.68 50.46 22.3 50.21 19.92 49.95 17.55 49.69 15.17 49.43 12.79 49.4 12.63 48.58 11.7 48.31 11.21 47.87 10.05 47.4 9.25 47.07 7.82 46.96 7.52 46.81 7.22 46.74 7.11 46.64 7.01 46.18 6.86 46.09 6.78 46.03 6.69 45.91 6.57 45.77 6.44 45.69 6.26 45.64 6.09 45.55 5.94 45.04 5.18 44.78 4.64 44.58 4.02 44.41 2.79 44.4 2.6 44.43 2.46 44.48 2.38 44.52 2.26 44.46 .66 44.43 .52 42.24 .73 40.01 .96 37.77 1.18 35.54 1.39 33.31 1.6 31.08 1.8 28.84 2.01 26.61 2.22 24.38 2.4 22.15 2.6 19.91 2.79 17.67 2.97 15.44 3.15 13.21 3.34 10.97 3.51 8.73 3.67 8.72 3.67 8.7 3.69 8.68 3.69 8.54 4.06 8.72 4.27 9.13 4.44 9.33 4.61 9.54 4.83 9.97 5.13 11.12 5.72 11.54 6.06 11.82 6.6 11.8 6.49 11.92 7.42 12.06 7.79 12.49 7.99 12.8 8.35 12.97 8.43 13.15 8.45 14.29 8.99 14.43 9.1 14.78 9.44 14.91 9.51 15.11 9.53 15.21 9.64 15.24 9.84 15.26 10.08 15.32 10.31 15.7 11.02 15.67 11.22 15.67 11.92 15.49 12.51 15.48 13.54 15.37 14.28 15.24 14.64 15.03 14.82 14.83 14.92 14.33 15.38 14.17 15.57 14.02 15.83 13.87 16.17 13.79 16.55 13.76 16.91 13.61 17.26 13.64 17.32 13.7 17.4 13.72 17.48 13.76 17.88 13.75 18.06 13.7 18.23 13.52 18.44 12.99 18.8 12.89 18.93 12.8 19.16 12.58 19.35 12.06 19.6 10.82 19.94 10.56 20.08 10.12 20.68 9.89 20.93 9.35 21.16 5.71 21.74 5.23 22.12 4.97 22.65 4.76 23.33 4.62 24.06 4.57 24.77 4.59 25.12 4.69 25.51 4.87 25.85 5.14 25.98 5.33 26.04 6.01 26.47 6.42 26.95 6.7 27.61 6.85 28.36 6.86 29.14 6.68 29.75 5.53 31.3 5.33 31.63 5.22 31.91 5.18 32.17 5.19 32.9 5.14 33.26 4.94 33.95 4.64 34.46 4.23 34.81 3.73 35.02 3.22 35.12 2.83 35.25 2.28 35.55 1.78 35.9 1.58 36.21 1.55 36.33 1.46 36.51 1.43 36.68 1.49 36.81 1.87 37.1 2 37.36 2.04 37.66 1.99 38.17 2.02 38.46 2.11 38.88 2.15 39.13 2.05 39.3 1.31 39.59 .93 39.96 .68 40.73 .56 41.59 .52 42.28 .57 43.04 1.12 45.74 1.21 45.99 1.41 46.25 1.66 46.5 1.73 46.61 1.8 46.73 1.85 46.85 1.88 47 1.9 47.4 1.84 47.9 1.87 48.08 1.93 48.2 2.11 48.37 2.23 48.58 2.6 48.89 2.7 49.05 2.74 49.23 2.8 49.62 3 50.16 3.3 50.55 6.8 53.23 7.02 53.46 7.2 53.76 7.3 54.11 7.38 54.33 7.6 54.51 10.81 56.45 11.12 56.71 11.46 57.09 11.84 57.67 12.03 58.01 12.14 58.33 12.18 58.56 12.19 59.02 12.21 59.23 12.3 59.43 12.58 59.78 12.64 59.95 12.6 60.14 12.52 60.34 12.48 60.55 12.58 60.76 12.7 60.95 12.79 61.22 12.83 61.5 12.79 61.71 13.49 62.89 13.93 63.35 14.49 63.51 15.04 63.2 15.78 62.06 16.42 61.86 16.69 61.93 17.16 62.19 17.41 62.23 17.72 62.23 18.41 62.37 19.76 62.98 20.34 63.37 20.58 63.79 20.51 64.09 20.32 64.52 20.11 64.92 19.94 65.1 19.78 65.29 19.79 65.71 19.91 66.37 19.96 67.05 19.78 67.59 19.21 68.71 18.7 70.61 18.16 71.7 18 72.24 18 72.87 18.18 73.61 18.28 73.88 18.38 74.06 18.48 74.22 18.6 74.37 19.39 74.94 19.49 75.08 19.9 75.43 20 75.57 20.11 75.82 20.36 75.99 20.88 76.24 21.26 76.55 21.62 76.94 22 77.25 22.49 77.36 23.27 77.92 23.5 78.02 23.99 77.97 24.16 78.01 24.59 78.1 25.08 78.4 25.91 79.12 26.25 79.29 27.1 79.57 27.45 79.77 27.81 80.2 28.28 81.07 28.6 81.39 29.95 81.87 30.34 82.14 30.25 82.36 30.32 82.62 30.45 82.92 30.52 83.22 30.52 83.49 30.49 83.78 30.47 84.09 30.55 84.42 30.89 84.97 31.31 85.47 31.67 86.02 31.87 86.69 31.69 87.31 31.27 87.81 30.92 88.32 30.98 88.97 31.06 89.02 31.33 89.11 31.46 89.16 31.68 89.31 31.68 89.53 31.76 89.8 31.88 90.05 32.24 90.58 32.85 91.28 33.09 91.72 33.04 92.22 33.29 92.45 34.01 92.93 34.59 93.1 34.73 93.09 34.78 92.92 34.72 92.67 34.61 92.53 34.48 92.45 34.35 92.32 34.17 91.96 34.23 91.78 34.48 91.72 34.81 91.7 34.9 91.77 34.99 92.17 35.04 92.31 35.18 92.41 35.48 92.56 35.59 92.66 35.68 92.83 35.73 93.01 35.79 93.18 35.93 93.3 36.09 93.33 36.25 93.28 36.4 93.19 36.53 93.14 36.8 93.24 36.29 92.76 36 92.37 35.93 91.95 36.17 91.4 36.58 90.84 36.95 89.95 37.07 89.76 37.5 89.33 38.03 89.03 38.64 88.89 39.3 88.96 43.15 90.33 44.17 90.86 44.72 90.96 45.22 90.83 45.57 90.39 45.78 89.69 45.72 89.17 45.43 88.68 44.97 88.15 44.62 87.62 44.43 87.04 44.43 86.38 44.61 85.66 44.73 85.41 44.88 85.22 45.09 85.09 45.37 85.01 45.97 84.96 46.19 84.87 46.92 84.35 49.33 83.64 49.73 83.32 49.78 82.84 49.42 82.16 48.97 81.78 48.89 81.7 48.62 81.26 48.49 80.96 48.55 80.55 48.68 80.17 48.81 79.93 49.49 79.21 49.66 78.97 49.76 78.58 49.74 78.25 49.76 78.02 49.44 77.94 49.18 77.94 49.09 77.91 49.03 77.84 49.03 77.75 49.07 77.71 49.45 77.7 49.66 77.66 49.79 77.57 49.69 77.4 48.97 76.85 48.72 76.6 49.33 76.64 49.45 76.63 49.65 76.5 49.68 76.38 49.63 76.22 49.56 75.99 49.45 75.67 49.44 75.46 49.55 75.36 49.6 75.25 49.56 74.98 49.49 74.72 49.42 74.56 49.55 74.35 49.33 73.96 49.48 73.88 49.7 73.81 49.93 73.68 50.13 73.51 50.3 73.33 50.08 73.17 49.68 73.27 49.45 73.18 49.73 72.93 49.99 72.62 50.1 72.5 50.39 72.41 50.5 72.32 50.61 72.01 50.42 71.85 50.15 71.72 50.01 71.58 49.95 71.48 49.85 71.39 49.74 71.27 49.69 71.1 49.7 70.89 49.79 70.76 49.89 70.66 49.99 70.5 50.05 70.23 50.1 69.94 50.2 69.73 50.45 69.64 50.47 69.74 50.62 69.92 50.77 69.99 50.85 69.67 50.91 69.53 51.01 69.39 51.1 69.33 51.16 69.39 51.21 69.55 51.28 69.7 51.41 69.76 51.5 69.67 51.51 69.48 51.5 69.27 51.52 69.12 51.6 68.92 51.67 68.53 51.76 68.33 51.86 68.25 52.11 68.12 52.19 68.06 52.37 67.79 52.53 67.41 52.55 67.07 52.34 66.9 52.32 66.78 52.71 66.6 53.1 66.35 53.2 66.24 53.33 66.05 53.41 65.97 53.54 65.95 53.63 66.02 53.69 66.02 53.76 65.83 53.74 65.63 53.48 65.31 53.4 65.06 53.44 64.8 53.55 64.6 53.71 64.44 53.86 64.32 53.79 64.32 53.84 64.28 53.87 64.23 53.91 64.16 53.94 64.07 53.84 63.75 53.91 63.4 54.07 63.1 54.28 62.9 54.4 62.87 54.58 62.84 54.73 62.79 54.78 62.67 55.06 61.41 54.82 60.77 54.46 60.18 54.46 60.18"/>
  </g>
</svg>
