<?xml version="1.0" encoding="UTF-8"?>
<svg id="Layer_2" data-name="Layer 2" xmlns="http://www.w3.org/2000/svg" viewBox="0 0 92.97 76.54">
  <defs>
    <style>
      .cls-1 {
        fill: #257500;
        stroke: #40c900;
        stroke-linecap: round;
        stroke-linejoin: round;
        stroke-width: 1.04px;
      }
    </style>
  </defs>
  <g id="Layer_1-2" data-name="Layer 1">
    <polygon class="cls-1" points="56.72 4.27 56.34 4.64 56.09 5.41 55.97 6.27 55.93 6.96 55.98 7.72 56.53 10.42 56.62 10.67 56.82 10.93 57.06 11.18 57.21 11.4 57.26 11.53 57.29 11.68 57.31 12.08 57.25 12.58 57.28 12.76 57.34 12.88 57.52 13.05 57.64 13.26 58.01 13.57 58.11 13.73 58.15 13.91 58.21 14.3 58.41 14.84 58.71 15.23 62.21 17.91 62.43 18.14 62.61 18.44 62.71 18.79 62.79 19.01 63 19.19 66.22 21.13 66.53 21.39 66.87 21.77 67.25 22.35 67.44 22.69 67.55 23.01 67.59 23.24 67.6 23.7 67.62 23.91 67.71 24.11 67.99 24.46 68.05 24.63 68.01 24.82 67.93 25.02 67.89 25.23 67.99 25.44 68.11 25.63 68.2 25.9 68.24 26.17 68.2 26.39 68.89 27.57 69.34 28.03 69.9 28.19 70.45 27.88 71.19 26.74 71.83 26.54 72.1 26.61 72.57 26.87 72.82 26.91 73.13 26.91 73.81 27.05 75.17 27.66 75.74 28.04 75.99 28.47 75.92 28.77 75.73 29.2 75.52 29.6 75.35 29.77 75.19 29.97 75.2 30.39 75.32 31.05 75.37 31.73 75.19 32.27 74.62 33.39 74.11 35.29 73.57 36.38 73.4 36.92 73.4 37.55 73.59 38.29 73.69 38.55 73.79 38.74 73.89 38.9 74.01 39.05 74.8 39.61 74.9 39.76 75.31 40.11 75.41 40.25 75.52 40.5 75.77 40.67 76.29 40.92 76.67 41.23 77.03 41.62 77.41 41.93 77.9 42.04 78.68 42.6 78.91 42.7 79.39 42.65 79.57 42.69 80 42.78 80.49 43.08 81.32 43.8 81.66 43.97 82.51 44.25 82.85 44.45 83.22 44.88 83.69 45.75 84.01 46.07 85.36 46.55 85.74 46.82 85.66 47.04 85.73 47.3 85.86 47.6 85.93 47.9 85.93 48.17 85.9 48.46 85.88 48.77 85.96 49.1 86.29 49.65 86.72 50.15 87.08 50.7 87.28 51.37 87.1 51.99 86.68 52.49 86.33 53 86.39 53.65 86.47 53.7 86.74 53.79 86.87 53.83 87.09 53.99 87.09 54.21 87.16 54.48 87.29 54.73 87.65 55.26 88.26 55.95 88.5 56.4 88.45 56.9 88.7 57.13 89.42 57.61 89.99 57.78 90.14 57.77 90.19 57.6 90.13 57.35 90.02 57.21 89.89 57.13 89.76 57 89.58 56.64 89.64 56.46 89.89 56.4 90.22 56.38 90.31 56.45 90.4 56.85 90.45 56.99 90.59 57.09 90.89 57.24 91 57.34 91.09 57.51 91.14 57.69 91.2 57.86 91.34 57.98 91.5 58.01 91.66 57.96 91.81 57.87 91.93 57.82 92.21 57.92 92.31 58.21 92.28 58.94 92.36 59.47 92.36 59.63 92.3 59.75 92.18 59.9 92.07 60.09 92.04 60.29 92.12 60.64 92.38 61.2 92.44 61.57 92.38 62.02 91.96 63.23 91.72 64.21 91.48 64.7 91.14 64.92 90.7 64.81 90.32 64.52 89.95 64.17 89.59 63.91 89.46 64.01 89.38 64.11 89.28 64.41 89.15 65.05 89.13 65.31 89 66.1 88.93 66.3 88.91 66.4 88.65 66.8 88.45 67.04 88.27 67.15 87.91 67.09 87.88 66.84 87.96 66.5 87.99 66.35 88.04 66.13 87.8 65.48 87.32 65.31 86.89 65.53 86.83 66.13 86.98 66.33 87.11 66.46 87.18 66.51 87.3 66.75 87.24 67.08 87.25 67.34 87.61 68 87.69 68.36 87.58 68.74 87.35 68.93 87.03 69.01 86.68 69.03 86.43 69.19 86.49 69.49 86.73 69.81 87 70.03 87.35 70.11 87.5 70.21 87.46 70.4 87.34 70.51 87.18 70.58 85.92 70.74 85.68 70.85 86.52 71.86 86.94 72.49 86.85 72.82 86.64 72.88 86.39 73.04 86.19 73.23 86.11 73.39 86.08 73.68 85.73 74.4 85.67 74.98 85.62 74.98 85.6 75 85.57 75 83.64 75.22 81.72 75.46 79.79 75.68 77.86 75.9 76.88 76.02 76.79 76.01 76.77 75.93 76.75 75.87 76.79 75.69 77.19 74.72 77.3 74.55 77.49 74.15 77.64 73.95 77.71 73.81 77.76 73.75 77.89 73.65 78.16 73.56 78.23 73.53 78.36 73.43 78.4 73.35 78.43 73.28 78.46 73.18 78.46 73.09 78.47 72.94 78.48 72.85 78.51 72.77 78.56 72.69 78.61 72.63 78.73 72.53 78.79 72.49 78.97 72.42 79.26 72.27 79.67 71.99 79.73 71.93 79.77 71.87 79.81 71.78 79.83 71.7 79.85 71.36 79.87 71.28 79.92 71.22 79.98 71.17 80.3 71.04 80.38 70.99 80.44 70.94 80.48 70.87 80.53 70.8 80.55 70.72 80.58 70.64 80.59 70.55 80.58 70.46 80.48 69.98 80.48 69.88 80.53 69.47 80.53 69.27 80.49 69.18 80.45 69.11 80.4 69.04 80.35 68.98 80.29 68.93 80.22 68.88 79.74 68.64 79.69 68.59 79.64 68.52 79.62 68.43 79.59 68.35 79.56 68.08 79.53 68.01 79.51 67.95 79.46 67.91 79.38 67.87 79.32 67.82 79.28 67.77 79.12 67.41 79.03 67.29 79.01 67.25 78.98 67.21 78.05 67.3 74.35 67.62 70.65 67.93 66.94 68.23 63.24 68.53 59.53 68.82 55.83 69.09 52.13 69.37 48.42 69.62 44.71 69.86 41 70.11 37.3 70.34 33.59 70.56 29.88 70.77 26.17 70.99 22.45 71.17 18.74 71.36 18.64 69.28 18.54 67.19 18.44 65.11 18.34 63.02 18.24 60.89 18.13 58.76 18.03 56.63 17.93 54.51 17.82 52.38 17.72 50.25 17.62 48.12 17.51 45.99 17.41 43.87 17.31 41.74 17.21 39.63 17.1 37.5 17 35.38 16.9 33.25 16.8 31.13 16.69 29.02 16.64 27.79 16.63 27.68 16.56 27.66 16.55 27.61 16.55 27.56 16.53 27.53 16.7 27.32 16.68 27.18 16.45 27.11 16.14 27.1 16.09 27.07 16.06 26.94 15.99 26.89 15.93 26.87 15.79 26.9 15.59 26.89 15.19 26.92 14.89 26.82 14.3 26.46 14.02 26.4 13.78 26.25 13.7 25.9 13.66 25.55 13.53 25.41 13.08 25.12 12.75 24.47 12.61 23.81 12.73 23.51 12.14 23.41 12.08 23.32 11.99 23.06 11.94 22.96 11.37 22.6 11.12 22.5 11.02 22.44 10.89 22.25 10.56 21.68 10.48 21.55 10.25 21.47 10.01 21.22 9.84 20.89 9.84 20.55 9.94 20.5 10.29 20.46 10.42 20.36 10.46 20.22 10.47 20.04 10.44 19.67 10.52 19.39 10.71 19.1 11.11 18.67 11.24 18.57 11.36 18.5 11.43 18.4 11.44 17.99 11.48 17.82 11.54 17.68 11.64 17.62 12.28 17.78 12.58 17.78 12.78 17.57 12.79 17.38 12.72 17.27 12.61 17.16 12.55 16.96 12.57 16.77 12.6 16.44 12.61 16.27 12.48 16.1 11.89 15.79 11.69 15.57 11.79 15.39 11.79 15.17 11.69 14.98 11.52 14.89 11.22 14.92 11 14.98 10.81 15.09 10.42 15.45 10.16 15.64 9.86 15.74 9.59 15.61 9.22 15.23 9.06 15.13 8.92 15.08 8.64 15.05 8.53 15.03 8.42 14.93 8.34 14.82 8.29 14.68 8.19 14.54 8.08 14.49 7.92 14.47 7.77 14.44 7.58 14.2 6.82 13.55 6.45 13.25 6.23 13.14 5.62 13.05 5.45 12.86 5.42 12.58 5.45 12.2 5.58 11.89 5.62 11.7 5.58 11.63 5.16 11.25 5.07 11.02 4.88 10.74 4.51 10.32 4.69 9.9 4.71 9.69 4.56 9.51 4.33 9.44 3.86 9.42 3.66 9.34 3.5 9.12 3.37 8.9 3.24 8.7 3 8.55 2.76 8.55 2.5 8.6 2.29 8.58 2.19 8.37 2.35 8.24 2.48 8.12 2.54 7.99 2.5 7.93 2.33 7.44 2.1 7.13 2.04 7.01 2.03 6.9 2.04 6.65 2.03 6.55 1.92 6.29 1.68 6.01 1.56 5.78 1.53 5.54 1.57 5.35 1.56 5.16 1.35 4.99 1.03 4.89 .77 4.85 .6 4.7 .52 4.28 .57 3.84 .65 3.84 3.8 3.7 6.95 3.55 10.09 3.38 13.22 3.21 16.38 3.03 19.52 2.86 22.65 2.67 25.8 2.48 28.94 2.28 32.08 2.06 35.22 1.84 38.36 1.62 41.5 1.39 44.64 1.15 47.77 .91 50.91 .66 52.14 .56 52.67 .52 52.79 .76 52.85 .83 53.1 .98 53.17 1.07 53.19 1.29 53.23 1.44 53.29 1.57 53.4 1.68 53.53 1.74 53.82 1.79 54.13 1.96 54.16 2.03 54.24 2.25 54.3 2.35 54.36 2.39 54.42 2.4 54.56 2.39 54.65 2.41 54.68 2.49 54.72 2.57 54.76 2.66 54.88 2.74 55.15 2.83 55.26 2.9 55.35 3.01 55.4 3.12 55.41 3.24 55.38 3.35 55.51 3.5 56.02 3.92 56.18 4.03 56.57 4.14 56.72 4.27 56.72 4.27"/>
  </g>
</svg>
