<?xml version="1.0" encoding="UTF-8"?>
<svg id="Layer_2" data-name="Layer 2" xmlns="http://www.w3.org/2000/svg" viewBox="0 0 143.28 80.11">
  <defs>
    <style>
      .cls-1 {
        fill: #257500;
        stroke: #40c900;
        stroke-linecap: round;
        stroke-linejoin: round;
        stroke-width: 1.04px;
      }
    </style>
  </defs>
  <g id="Layer_1-2" data-name="Layer 1">
    <polygon class="cls-1" points="141.25 62.08 141.19 63.84 141.14 65.59 141.08 67.35 141.03 69.11 140.98 70.86 140.92 72.62 140.87 74.39 140.8 76.14 140.78 77.14 140.77 77.35 140.37 77.33 139.04 77.27 137.7 77.22 136.37 77.18 135.04 77.13 133.69 77.06 132.36 77.01 131.03 76.95 129.7 76.89 128.36 76.84 127.03 76.78 125.68 76.71 124.35 76.65 123.02 76.58 120.35 76.45 119.02 76.38 117.68 76.3 116.34 76.24 113.68 76.09 111.01 75.94 109.67 75.85 108.35 75.78 107.02 75.69 105.67 75.62 104.34 75.53 101.67 75.36 100.34 75.27 97.68 75.1 96.34 75.01 95.01 74.91 93.68 74.82 92.35 74.72 91.01 74.62 89.68 74.54 88.35 74.43 87.02 74.34 85.68 74.22 83.02 74.02 81.68 73.91 80.35 73.81 79.02 73.7 77.69 73.59 76.35 73.47 75.02 73.36 73.69 73.25 72.36 73.14 71.04 73.02 69.71 72.9 68.37 72.78 67.04 72.67 65.71 72.54 64.37 72.42 63.04 72.29 61.72 72.17 60.39 72.04 59.06 71.92 57.72 71.78 56.39 71.66 55.07 71.52 54.45 71.46 54.42 71.72 54.37 72.22 54.32 72.7 54.27 73.2 54.22 73.69 54.17 74.19 54.12 74.67 54.07 75.17 54.02 75.66 53.97 76.15 53.92 76.64 53.87 77.13 53.82 77.62 53.77 78.11 53.72 78.61 53.68 79.11 53.63 79.59 53.1 79.39 52.92 79.23 52.6 78.78 52.43 78.41 52.28 78.21 52.16 78.1 51.98 77.98 51.9 77.91 51.83 77.84 51.81 77.76 51.78 77.69 51.77 77.6 51.77 77.4 51.78 77.29 51.8 77.19 51.76 77.06 51.7 76.99 51.61 76.91 51.49 76.85 51.45 76.78 51.37 76.56 50.95 75.77 50.86 75.47 50.75 75.37 50.33 75.08 50.18 75.03 50.08 75.02 50.01 75.07 49.85 75.28 49.78 75.35 49.68 75.37 49.33 75.37 49.24 75.39 49.08 75.47 48.96 75.57 48.91 75.64 48.88 75.72 48.91 75.79 48.93 75.87 48.98 75.93 49.02 76.01 49.03 76.08 49.04 76.18 49.03 76.27 48.99 76.37 48.94 76.43 48.87 76.47 48.53 76.55 48.47 76.6 48.43 76.66 48.39 76.84 48.37 76.91 48.26 77.09 48.22 77.18 48.19 77.27 48.19 77.45 48.22 77.62 48.23 77.7 48.26 77.74 48.28 77.79 48.33 77.85 48.41 77.89 48.68 78.01 48.74 78.07 48.77 78.14 48.77 78.21 48.68 78.25 48.56 78.27 48.34 78.27 48.23 78.25 48.16 78.22 48.02 78.1 47.66 77.89 47.51 77.84 46.18 77.69 45.99 77.7 45.41 77.98 45.32 78.02 45.11 78.05 44.86 78.03 44.75 78.06 44.48 78.15 44.37 78.14 44.29 78.1 44.22 78.05 44.18 77.97 44.16 77.9 44.07 77.76 44 77.69 43.89 77.6 43.68 77.5 43.16 77.43 43.05 77.44 42.95 77.45 42.89 77.5 42.79 77.54 42.67 77.56 42.43 77.57 42.23 77.52 41.03 77.6 40.92 77.57 40.64 77.43 40.3 77.3 40.07 77.26 39.79 77.24 39.65 77.21 39.56 77.16 39.4 77.01 39.23 76.91 39.12 76.9 39.03 76.93 38.92 77.03 38.85 77.06 38.76 77.09 38.43 77.13 38.23 77.19 38.08 77.25 38.01 77.29 37.96 77.35 37.91 77.43 37.77 77.8 37.5 78.31 37.42 78.38 37.31 78.44 37.11 78.48 36.97 78.48 36.86 78.44 36.8 78.38 36.75 78.32 36.68 78.25 36.58 78.16 36.35 78.07 36.16 78.05 35.83 78.06 35.75 78.03 35.65 77.92 35.59 77.87 35.52 77.82 34.04 77.46 33.63 77.31 33.5 77.3 33.4 77.31 33.16 77.43 33.09 77.45 32.73 77.49 32.65 77.52 31.87 78.12 31.81 78.18 31.76 78.25 31.71 78.32 31.67 78.4 31.66 78.5 31.68 78.57 31.85 78.94 31.83 79.03 31.77 79.12 31.56 79.19 31.45 79.17 31.38 79.12 31.13 78.7 31.08 78.63 31.02 78.58 30.49 78.35 30.41 78.28 30.35 78.22 30.19 77.95 30.12 77.86 30.03 77.79 29.83 77.69 29.72 77.61 29.69 77.51 29.7 77.33 29.69 77.25 29.6 77.03 29.59 76.95 29.6 76.91 29.66 76.76 29.81 76.53 29.84 76.44 29.81 76.36 29.74 76.25 29.55 76.14 29.47 76.06 29.4 75.97 29.43 75.78 29.42 75.69 29.39 75.62 29.1 75.23 29.07 75.16 29.07 75.08 29.08 75 29.13 74.94 29.19 74.88 29.33 74.8 29.39 74.73 29.44 74.67 29.45 74.58 29.45 74.5 29.44 74.42 29.38 74.27 29.27 74.05 29.24 73.98 29.18 73.73 29.15 73.65 29.12 73.58 29.03 73.44 28.99 73.36 28.97 73.29 28.95 73.2 28.94 73.11 28.93 73.04 28.9 72.97 28.87 72.89 28.72 72.7 28.67 72.63 28.53 72.34 28.49 72.27 28.29 72.02 28.03 71.76 27.73 71.56 27.46 71.46 27.25 71.42 27.16 71.45 27.07 71.47 27.01 71.51 26.74 71.7 26.64 71.73 26.51 71.76 26.29 71.74 26.18 71.71 26.11 71.63 26.11 71.36 26.1 71.27 26.02 71.17 25.85 71.05 25.32 70.72 25.18 70.6 25.09 70.45 25.03 70.3 24.92 69.8 24.87 69.65 24.79 69.52 24.7 69.38 24.66 69.3 24.65 69.23 24.67 69.15 24.73 69.11 24.79 69.07 25.04 68.99 25.11 68.94 25.17 68.88 25.22 68.81 25.26 68.72 25.38 68.33 25.4 68.25 25.4 68.22 25.38 67.96 25.37 67.87 25.23 67.4 25.18 67.24 24.86 66.67 24.83 66.59 24.79 66.29 24.72 66.17 24.63 66.1 24.23 66.07 24.13 66.02 24.07 65.95 24.06 65.87 24.08 65.67 24.07 65.58 24.04 65.52 23.95 65.37 23.94 65.29 23.92 65.21 23.92 65.11 23.9 64.95 23.87 64.86 23.81 64.72 23.66 64.51 23.49 64.33 23.28 64.04 23.09 63.85 23.04 63.76 23.03 63.67 23.04 63.5 23.03 63.4 22.99 63.31 22.9 63.21 22.65 62.99 22.59 62.9 22.55 62.83 22.53 62.75 22.54 62.57 22.55 62.47 22.6 62.28 22.68 61.88 22.7 61.68 22.67 61.57 22.59 61.46 22.28 61.15 22.24 61.02 22.24 60.83 22.23 60.76 22.22 60.67 22.23 60.59 22.25 60.49 22.29 60.4 22.39 60.25 22.43 60.16 22.44 60.08 22.44 59.8 22.45 59.7 22.46 59.69 22.44 59.56 22.33 59.44 21.97 59.24 21.88 59.14 21.84 59.04 21.87 58.94 21.92 58.74 22.04 58.49 22.15 58.37 22.2 58.29 22.23 58.21 22.22 58.12 22.18 58.02 22.08 57.9 22.01 57.81 21.9 57.76 21.31 57.47 21.17 57.37 21.1 57.27 21.11 57.1 21.1 57.01 21.07 56.94 20.78 56.64 20.4 56.29 20.17 56.15 20.02 56.08 19.95 56.09 19.9 56.13 19.86 56.16 19.84 56.24 19.82 56.34 19.81 56.43 19.82 56.5 19.85 56.61 19.85 56.77 19.82 56.84 19.79 56.86 19.73 56.89 19.4 56.95 19.31 56.97 19.24 57.01 19.18 57.06 19.12 57.12 19.02 57.27 18.98 57.36 18.93 57.44 18.87 57.51 18.8 57.55 18.58 57.65 18.51 57.7 18.46 57.77 18.41 57.85 18.37 57.92 18.32 57.97 18.24 58.01 17.73 58.14 17.43 58.28 17.36 58.31 17.26 58.31 17.06 58.26 16.96 58.26 16.89 58.28 16.81 58.32 16.75 58.37 16.69 58.43 16.64 58.51 16.46 58.83 16.4 58.91 16.39 58.92 16.33 58.95 16.03 59.05 15.95 59.09 15.84 59.12 15.7 59.13 15.45 59.08 15.33 59.02 15.24 58.94 15.2 58.88 15.16 58.76 14.77 58.49 14.66 58.39 14.59 58.29 14.58 58.21 14.57 58.11 14.52 58.01 14.15 57.67 14.03 57.62 13.49 57.44 13.25 57.41 13.07 57.36 13.04 57.3 13.05 57.24 13.21 57.05 13.26 56.97 13.29 56.89 13.29 56.79 13.25 56.69 13.2 56.54 13.19 56.44 13.21 56.35 13.27 56.3 13.55 56.13 13.73 55.99 13.77 55.95 13.83 55.83 13.87 55.74 13.88 55.65 13.86 55.48 13.87 55.4 13.94 55.26 13.94 55.14 13.87 55.02 13.6 54.68 13.54 54.58 13.52 54.5 13.49 54.27 13.41 54.11 13.4 53.99 13.42 53.91 13.49 53.86 13.62 53.76 13.7 53.71 13.75 53.64 13.8 53.56 13.9 53.42 14.06 53.24 14.13 53.1 14.17 53.07 14.22 53.01 14.36 52.94 14.43 52.92 14.52 52.9 14.94 52.94 15.03 52.94 15.12 52.92 15.19 52.88 15.52 52.64 15.58 52.58 15.6 52.48 15.6 52.37 15.4 51.94 15.37 51.86 15.35 51.78 15.35 51.69 15.38 51.6 15.42 51.51 15.45 51.42 15.6 51.21 15.64 51.12 15.64 51.01 15.61 50.91 15.53 50.85 15.22 50.72 14.96 50.56 14.86 50.45 14.83 50.35 14.87 50.26 14.89 50.16 14.89 50.05 14.82 49.88 14.79 49.75 14.81 49.65 14.84 49.56 14.89 49.49 15.18 49.18 15.23 49.11 15.27 49.03 15.29 48.93 15.3 48.84 15.28 48.75 15.24 48.68 14.83 48.13 14.78 48.03 14.78 47.94 14.81 47.86 14.84 47.8 14.87 47.77 14.93 47.73 15.01 47.71 15.42 47.72 15.5 47.71 15.58 47.67 15.64 47.62 15.69 47.56 15.72 47.47 15.73 47.37 15.72 47.2 15.73 46.91 15.73 46.83 15.72 46.74 15.67 46.56 15.63 46.45 15.6 46.35 15.6 46.26 15.64 46.19 15.68 46.13 15.8 46 15.85 45.93 15.89 45.84 15.93 45.65 15.95 45.57 16 45.49 16.29 45.18 16.34 45.12 16.38 45.03 16.39 44.93 16.4 44.73 16.43 44.53 16.49 44.35 16.56 44.17 16.91 43.65 16.95 43.55 16.99 43.46 17.01 43.36 17.01 43.26 17 43.17 16.96 43.09 16.92 42.99 16.77 42.78 16.74 42.7 16.74 42.66 16.77 42.59 16.82 42.55 16.9 42.53 17.25 42.45 17.32 42.42 17.4 42.38 17.46 42.33 17.51 42.28 17.55 42.19 17.52 42.04 17.5 41.97 17.48 41.88 17.5 41.79 17.53 41.72 17.65 41.59 17.68 41.51 17.71 41.43 17.71 41.33 17.69 41.26 17.71 41.17 17.73 41.08 17.77 41 17.87 40.85 17.93 40.66 17.97 40.36 17.98 40.26 17.97 40.16 17.93 40.05 17.87 39.97 17.78 39.92 17.68 39.9 17.58 39.89 16.75 39.99 16.67 40 16.46 40.11 16.3 40.17 16.21 40.19 16.11 40.19 16.03 40.16 15.84 40.06 15.77 40.04 15.68 40.04 15.39 40.1 15.24 40.12 15.04 40.11 14.89 40.05 14.73 39.96 14.47 39.75 14.36 39.63 14.28 39.51 14.27 39.44 14.26 39.35 14.28 39.26 14.33 39.19 14.52 39.02 14.55 38.93 14.55 38.8 14.46 38.64 14.4 38.54 14.12 38.29 14.03 38.24 13.95 38.22 13.77 38.22 13.69 38.26 13.47 38.38 13.18 38.65 13.09 38.69 12.99 38.69 12.88 38.65 12.83 38.58 12.8 38.5 12.81 38.42 12.95 38.04 12.96 37.95 12.98 37.83 12.94 37.71 12.89 37.63 12.81 37.57 12.48 37.43 12.3 37.33 12.19 37.21 12.04 37 11.93 36.87 11.59 36.6 11.49 36.5 11.43 36.41 11.36 36.17 11.33 36 11.32 35.83 11.33 35.55 11.36 35.45 11.38 35.35 11.43 35.27 11.45 35.19 11.45 35.1 11.39 35.03 11.12 34.82 11.03 34.73 10.96 34.65 10.68 34.18 10.62 34.1 10.55 34.03 10.32 33.95 10.16 33.86 10.07 33.78 10.02 33.71 10.01 33.67 10.01 33.64 9.99 33.35 9.97 33.26 9.07 32.03 8.94 31.63 8.68 31.16 8.57 31.02 8.27 30.77 8.18 30.65 8.08 30.49 8.02 30.4 7.93 30.32 7.82 30.25 7.76 30.17 7.72 30.09 7.71 29.91 7.68 29.84 7.65 29.75 7.58 29.65 7.55 29.56 7.46 29.31 7.36 29.1 7.27 29 7.18 28.91 6.18 28.37 5.59 28.19 5.43 28.09 5.34 28.02 5.29 27.93 5.21 27.71 5.13 27.47 4.98 27.18 4.66 26.71 4.56 26.61 3.75 25.94 3.31 25.74 3.12 25.63 3.05 25.53 3.04 25.44 3.06 25.37 3.11 25.32 3.15 25.29 3.21 25.26 3.29 25.24 3.8 25.28 3.88 25.27 3.97 25.24 4.05 25.22 4.11 25.15 4.15 25.08 4.11 24.97 4.01 24.88 3.83 24.77 3.73 24.68 3.72 24.67 3.71 24.33 3.64 24.15 3.55 24.03 3.26 23.8 3.21 23.71 3.21 23.62 3.27 23.57 3.35 23.54 3.66 23.42 3.78 23.32 3.85 23.26 3.95 23.11 3.98 23.02 3.97 22.89 3.92 22.71 3.66 22.2 3.62 22.07 3.71 21.68 3.72 21.57 3.7 21.46 3.65 21.31 3.57 21.22 3.26 20.96 3.21 20.87 3.19 20.76 3.17 20.65 3.12 20.48 3.02 20.38 2.74 20.17 2.66 20.07 2.63 19.97 2.52 19.18 2.49 19.08 2.43 18.94 2.34 18.85 2.09 18.65 1.99 18.54 1.89 18.37 1.78 18.23 1.64 18.09 1.58 18.01 1.54 17.92 1.48 17.73 1.24 17.33 1.13 17.07 .84 16.62 .62 16.36 .55 16.19 .52 16.09 .63 15.3 .91 13.45 1.17 11.6 1.44 9.75 1.72 7.91 1.99 6.05 2.27 4.2 2.53 2.36 2.8 .52 5.21 .87 7.76 1.24 10.31 1.6 12.85 1.95 15.4 2.3 17.95 2.65 20.5 2.99 23.05 3.32 25.6 3.65 25.8 3.67 28.16 3.97 30.71 4.29 33.26 4.6 35.82 4.92 38.37 5.22 40.92 5.51 43.48 5.8 46.03 6.1 48.59 6.37 51.15 6.66 53.7 6.93 56.27 7.2 58.82 7.46 61.39 7.72 63.94 7.97 66.5 8.22 69.07 8.47 71.62 8.7 73.09 8.83 74.19 8.93 76.75 9.16 79.31 9.39 81.87 9.6 84.44 9.81 87 10.02 89.57 10.22 92.13 10.42 94.7 10.61 99.83 10.98 102.4 11.16 104.96 11.32 107.53 11.49 110.09 11.66 112.66 11.8 115.24 11.95 117.8 12.1 120.37 12.24 122.93 12.38 125.51 12.51 128.08 12.64 130.64 12.76 133.22 12.88 135.79 12.99 138.35 13.09 140.93 13.19 142.76 13.26 142.66 16.28 142.57 19.3 142.47 22.33 142.39 25.37 142.29 28.41 142.2 31.44 142.1 34.49 142 37.55 141.91 40.6 141.81 43.66 141.72 46.71 141.63 49.79 141.53 52.85 141.44 55.93 141.34 59.01 141.25 62.08 141.25 62.08"/>
  </g>
</svg>
