<?xml version="1.0" encoding="UTF-8"?>
<svg id="Layer_2" data-name="Layer 2" xmlns="http://www.w3.org/2000/svg" viewBox="0 0 223.06 161.56">
  <defs>
    <style>
      .cls-1 {
        fill: #257500;
        stroke: #40c900;
        stroke-linecap: round;
        stroke-linejoin: round;
        stroke-width: 1.04px;
      }
    </style>
  </defs>
  <g id="Layer_1-2" data-name="Layer 1">
    <path class="cls-1" d="M15.53,101.64l.3.16.46.4.54.32h.46l.99-2.36v-.46l-.29-.27-.73-.11-.46-.11-.44.13-.43.21-.48.13.13.49-.13,1.23.08.22h0ZM168.06,142.19l-.19-.92-1.11-2.88-.27-1.54-.19-.62-.38-.54-.51-.37-.54-.3-.43-.37-.48-1.13-.19-.24-.16-.3-.03-.51.08-.33.21-.32.41-.51.22.67-.08.62.06.62.62.64,1.07.56.4.3.41.46.56,1.13.43,1.29.67,2.85.08.73-.05,1.5.14,1.51-.32,1.56.05.78-.05.54-.91,3.07-.05.7.08.75.16.75.54-.62.38-2.26.35-.94.64-.56.95-.43.99-.27.83-.05-.19-.29-.54-.59-.16-.27.08-.35.29-.14.32-.05.11-.19v-.64l.21-.65.89-1.56.22-.27.3-.16.59-.13.05-.16.38-.95.05-.38-.11-.14-.32-.16.21-.3.08-.08-.16-.24-.21-.27-.11-.11-.08-.02-.16-.06-.11-.08-.91-.86-.87-.86-.21-.19.32-.35,1-.99,1.29-1.29,1.37-1.37,1.13-1.13.35-.4-.54-.49-1.05-1.05-.7-.75-.11-.65-.29-1.64-.27-1.64-.29-1.61-.3-1.64-.27-1.61-.3-1.64-.27-1.61-.3-1.64-.29-1.62-.27-1.64-.29-1.61-.3-1.64-.27-1.62-.3-1.64-.29-1.61-.27-1.61-.92-.67v-.67l.05-1.37.08-2.66.17-5.33.11-2.66.08-2.66.08-2.64.08-2.66.08-2.67.03-.86.29-.67-.56-.86-.68-1.05v-1.29l-.08-.59-.05-.38-.08-.24-.16-.73-.24-1.13-.32-1.45-.38-1.7-.43-1.94-.46-2.04-.95-4.22-.46-2.04-.43-1.91-.4-1.7-.32-1.45-.24-1.13-.16-.7-.05-.27-.16-.75-.27-.21-.29-.19-.16-.05-.29-.24-.67-1.13-.16-.16-.19-.14-.21-.03h-.43l-.19.05-.19.05-.17.11-.14.11-.11.14-.08.19-.03.19.03.64-.03.22-.08.16-.08.16-.24.3-.27.19-.08.06h-.08l-.08-.08-.27-.29-.22-.35-.16-.41-.19-.76-.05-.4v-.33l.54-3.74v-.27l-.11.19-.24-1.08-.11-.3-.27-.27-.73-.46-.22-.35-.03-.4.08-.7-.03-.43-.16-.38-.24-.32-.46-.46-.38-.56-.27-.59-.46-1.81-.03-.69-.08-.4-.02-.05-.24-.19-.19.08-.24.35-.08.38-.48-1.4.05-3.68-.54-1.13.59-.56,1.35-2.4-.38-.4-.27-.35-.19-.46-.33-.97-.48-1.13-.19-.24-.16-.16-.11-.11-.4-1.88-.13-.38-.3.08-.11.62.03.78.14.59-.27-.4-.13-.46-.02-.48.08-.46v-.48l-.24-.43-.65-.7.35-.51.05-.59-.27-.46-.62-.08-.27-.24-.35-.59-.27-.7-.08-.46-.16.03v-.27l-.08-.32-.16-.27-.24-.27.32-.43-.03-.51-.35-.89-.03-.72.21-.35h.32l.38.51.16.14h.19l.08-.27-.08-.35-.16-.21-.19-.13-.43-.38-.19-.08-.08-.11-.03-.43.11-.35.16-.08.16-.03.16-.19.16-.7-.08-.43-.32-.3-.46-.26-.21-.38-.14-.62-.05-.64.08-.99-.24-1.24-.06-.54.08-.08.14-.03.13-.14.08-.37-.06-.32-.13-.33-.29-.48.05-.27-1,.27-2.56.65-2.58.64-2.55.62-2.58.65-2.56.65-2.58.62-2.56.64-2.58.62-2.55.65-2.58.62-2.55.62-2.58.62-2.58.62-.43.05-.75.19-3.36.37-.46.13-.4.24-.8.8-1.4.89-.38.32-.94,1.1-.4.3-1.29.67-3.17,2.93-1.48,2.02-2.39,3.26-2.56,3.47-2.55,3.44-1,2.18-.72,1.26.46.43.29.59.19.59-.16.54-1.45,1.42v.14l.02.21v.22l-.05.19-.08.08-1.27.83-.08.27-.19.38-2.77,3.58-3.06,2.21-3.84,4.14-.14.54.3.72.4.16.51.03.54.32.21.35v.29l-.05.24.11.27.24.14h.24l.16-.22v-.41l.14-.51,1.53-1.18.32.4,1.02-.4.46.29-.16.22-.05.13v.46l.14-.24.19-.21.21-.13.24-.08-.05.48-.19.51-.29.45-.62.49-.35.49-.19.48.19.13,1.64-.35.46-.27.57-.78.4-.25h.46l.24.25.03.4-.21.49-.35.29-.84.32-.27.43-.08.54.06.43v.46l-.29.62-.94,1.18-.19.54-.83-.32.11-.24.08-.75-1.16.89-.29.37-.19.62.22.22.43.08.48.3.19.13.4.16.16.13.13.24.05.27.11.24.48.59.46.89.27.4-.11.73.14.78.29.81.35.78.11-.54.19-.37.27-.17.38.11-.78,1.8.03.81.83.35-.4.56-.78,1.42-.48.38-1.69.73-.7.02-1.18-.16-.46.16-1.07,1.64-.44.49-2.47,1.88-.86.91-.73,1.08-.72,2.42-.72-.27-.41-.03-.08.43-.11.16-1.56,1.13-2.61,1.13-.11.14-.08.32.03.27.08.2v.18l-.05.24.03.11-.03.08-.24.14-.24.08-.27-.02-.24-.14-.24-.22.02-.14.08-.37-10.28,1.67-1.15.48-3.09,1.86-1.21.24-1.18-.27-2.23-1.27-.16-.03-.62-.03-.08-.37-.72-.16-9.82.19-3.09,1.13-4.17.24-7.99,2.82-1.56,1.16-2.77,1.02-3.17,1.96-1.75.65.24.59.73,3.09.05.38.03.46-.05.32-.11.3-.05.37.11.51h.03l1.18.48,3.04-.24.86.75.03.78-.75,1.13-.08.83.19.29.56.33.16.19.48,1.51.25.35.75.95.24.4.11.3.16.81.08.86-.14.67-.35.51-.46.48-1.91,1.29-.89.81-.56,1.02-.33,1.4-.32.67-.51.38-.11.16-.27,1.02-.22.59-.11.16-.32.24-1.67.86-.4.86-1.26,1.16-1.21.78-.27.21-.14.27-.16.38-.22.35-.72.54-.97,1.88-1.35,1.08-.35.59-.38.49-1.72,1.02-1.72,1.94-.7.48-.46.54-.29.16.03.08.19,1,.19,1.02.19,1.02.19,1.02.2,1.02.19,1.02.19,1.02.19,1,.21,1.21.99-.19,3.66-.7,3.69-.67,3.68-.7,3.66-.67,3.68-.7,3.66-.73,3.69-.7,3.66-.73,3.68-.7,3.66-.73,3.66-.72,3.68-.73,3.66-.73,3.66-.75,3.66-.73,3.69-.75,3.66-.76,3.66-.75,3.66-.78,3.66-.75,3.66-.78,3.66-.78,3.66-.78,3.66-.78,3.66-.78,3.66-.8,3.63-.78,3.66-.81,3.66-.81,3.66-.81,3.63-.83,3.66-.81.59-.13.32-.08.11.49.76.32.91.19.64.27.32.59.24.86.32.73.54.24,1.42-.59.35.05.73.35.78.08.54.57.27.08.38.05-.03.35-.46.89.64.19.48.05.4.24.3.73v.35l-.3.37-.03.35.68,1.21.16.73.24,1.83.16.35.43.24,2.02,2.53.46.46.57.3,1.26.02.43.24.35.32.46.24h.67l1.3-.4.61.19.41.24.29-.05.24-.19.27-.16.24.08.19.24.35.51.32.27.6.64.29.68,3.04.97,3.04.94,3.04.97,3.06.95,3.04.97,3.07.94,3.04.94,3.06.97h0ZM82.3,51.91l.16-.84v-.4l-.3.03-.43.29-.32.33-.38.51-.08.4.32,1.1.78-.91.24-.51h0ZM84.85,39.81l.11.32.05.4.27.27.22-.11.62-.81.43-.3.48-.54.4-.67.24-.7.05-.08v-.11l-.03-.19-.35.11-.21.22-.35.62-.24-.48-.27.29-.4,1.13-.21-.16.05-.08.03-.03.03-.02.03-.16-.33.08-.24.11-.16.22-.08.27-.08-.03-.11.03-.16.03-.19.08.05.27.35.03h0ZM82.22,42.6l.21.08.6-.27.83-.97.54-.46-.03-.13-.08-.11-.19-.16h-.16l-.16.16-.24.14-.32-.11-.24.32-.62.35-.24.3-.06.27.03.33.13.26h0ZM216.49,120.11l.35-.11.35-.27.56-.73.41-.4.08-.03.08-.08.05-.16-2.07.81-.38.32-.05.46.24.19h.37ZM222.06,125.33l-.75.11-.54.24.19.32.05.21-.54.06-.46-.08-.3.13-.03.78-.56-.06-.46.4-.81,1.1-.91.7-.54.27-.29-.13-.21-.33-1.21-1.08-.4-.03-.19.48v.7l.13.62-1.26-.81-.43-.11-.19.27-.03.4.05.19-.29.19-.62.56-.35.11-.21-.21-.21-.38-.29-.19-.38.29.46.59-.32.51-.62.49-1.18,1.56-.35.59.02.4.16.43-.35.43-.56.38-.54.27-.62.05-.62-.11-.54.05-.46.56-.27-.13-.29-.03-.29.05-.3.11.16-.51.38-.57.46-.51.62-.4.16-.24.24-.54.05-.16.06-.46.11-.19.11-.05.32-.03.14-.05.59-.84.24-.13.11.21.32.35.32.22.03-.35-.16-.43-.19-.32-.03-.35.19-.46.22-.19.59-.14.24-.21-.24-.05-.24-.08-.21-.16-.21-.24,1.4-2.18.91-.89.56.56.32-.24.35-.37.27-.46.05-.43-.24-.27-.41-.08-.43.05-.35.14-1.27,1.08-.32.43-.46.94-.32.43-1.15.64-.51.4-.28,1.02-1.42,1.07-1.29,2.07-.54.38-3.28,1.56-4.3.86-4.6,1.15.24.32-.03.26-.21.17-.35.08-.03-.75-.43-.05-.56.33-.43.32.27.56-.16.62-.43.51-1.13.67-.3.08-.24-.02-.62-.16h-.27l-.56.05-2.56-.3-.56.16-.19.32.65.54.24-.57.46.11.38.46.03.48-.35.11-.51-.08h-.54l-.28.4-.4-.19-.3-.19.11-.7-.56-.33-.7.17-.24.7.16.35.59.46.11.27-.19.19-.78-.16-.37.06.02-.19.08-.11-1.54-.03-1.4.78-.68,1.32.78,1.64-.37.13-.57-.38-.67-.59-.64-.4-.29.35-.19.48.05.38.94.13.22.4-.08.43-.24.27-.27-.16-.32-.4-.35-.3-.4.16-.11.37.3.92.03.43-.76-.29-.94-.03-.72.35-.11.83h-1.37l-.62.65-.64,2.5-.08.19-.24.24-.11.16-.02.11-.03.3v.14l-.56,1.1-.08.32.3.78.99.7.03.73.46-.08,1.35-.62.14-.14.27-.35.21-.16.35-.08.27.06.24-.06.19-.43-.43-.38-.21-.11-.27-.05-.05-.24.64-.7.38-.27.59-.19.57-.05.78.05.59.19.05.35.19.19.05.11.06.13-.51.16-3.33,2.23-.43.43.97-.06,3.58-2.07,4.92-1.18-.06-.24-.78.03-1.99.72-.64-.19.03-.56.7-.35,1.53-.38,2.71-1.69,2.74-.89.54-.35.86-.86,1.64-.83.27-.21.3-.48.21-.22.48-.13,1.29.08.64-.05.35-.24-.08-.35-.2-.38.08-.35.33-.16.35.03.38.08h.32l.32-.11,1.1-.59.27-.41.27-.13,1.72-.51.54-.32.57-.57.32-.13.73.21h.35l.54-.24.32-.4v-.48l-.4-.51.97-.19,2.91-1.18.65-.13-.16.35-.46.35-1.26.67-.16.08-.05.13.11.19.19.08.11-.08.08-.17.14-.11.27-.1,2.5-1.83,1.62-.75.88-.92.24-.35-.08-.32-.27-.3-.16-.32.03-.32.3-.19.72-.11.35.13.08.38-.19.64.51-.21.81-.78.86-.43,1.34-.99,2.1-2.31,1.56-.89,1.72-1.48,1.72-.92,2.79-2.74.43-.3.33-.32.11-.38-.48-.03h0ZM200.22,142.24l-1.24,1-1.34.73-.27.3-.29.29-1.05.62-.38.13-.32.24-.62.92-.35.4-1.62,1.11-2.5,1.15-.8.62-.89.29h-.78l.28.38.94-.3,2.5-1.16,2.66-1.7.78-.67.4-.19,1.53-1.5,2.34-1.43.38-.16.27-.35.86-.7-.05-.21-.43.19h0ZM188.55,149.47l-.05-.11.03-.05.13-.03-.05-.21-.48.32-1.7.46-.29.14-.16.11-.35.46-.59.38-.16.19-.35.27-3.79,1.64.72.24,3.72-1.72,1.37-1.24,2.02-.73v-.11h0ZM166.09,155.07l-.35.19-.32.3-.37.24-.65.11-.43-.03-.3.16-.19.65.03.56.19,1.1-.05.57-.16.19-.24.16-.24.24-.16.35.03.24.27.94,2.83-2.44,1.05-1.64-.35-1.83-.57-.05h0Z"/>
  </g>
</svg>
