<?xml version="1.0" encoding="UTF-8"?>
<svg id="Layer_2" data-name="Layer 2" xmlns="http://www.w3.org/2000/svg" viewBox="0 0 118.78 57.15">
  <defs>
    <style>
      .cls-1 {
        fill: #257500;
        stroke: #40c900;
        stroke-linecap: round;
        stroke-linejoin: round;
        stroke-width: 1.04px;
      }
    </style>
  </defs>
  <g id="Layer_1-2" data-name="Layer 1">
    <polygon class="cls-1" points="114.06 8.87 114.49 11.18 114.9 13.48 115.32 15.79 115.75 18.11 116.16 20.41 116.58 22.73 117 25.03 117.43 27.35 117.54 30.98 117.64 34.62 117.74 38.26 117.85 41.91 117.95 45.54 118.06 49.18 118.16 52.83 118.26 56.47 118.18 56.45 117.84 56.47 117.58 56.34 117.58 56.47 116.9 56.26 116.69 56.17 116.74 56.08 116.78 56 116.48 55.99 116.12 56.08 116.01 55.93 115.84 55.84 115.65 55.79 115.45 55.77 115.35 55.77 115.2 55.85 115.1 55.88 115.02 55.85 114.9 55.71 114.65 55.59 114.4 55.21 114.2 55.13 114.03 55.13 113.67 55.03 112.76 54.91 112.21 54.42 111.98 54.06 111.91 53.96 111.76 53.87 111.64 53.82 111.55 53.73 111.5 53.48 111.46 53.4 111.36 53.31 111.25 53.24 111.15 53.22 110.66 53.22 110.45 53.16 110.23 53.02 109.75 52.58 109.51 52.43 109.07 52.34 108.98 52.24 108.92 52.13 108.85 52.03 108.68 51.93 107.75 51.67 107.53 51.71 107.28 51.93 107.2 52.19 107.19 52.48 107.13 52.67 106.95 52.58 106.88 52.72 106.78 52.79 106.65 52.85 106.51 52.94 106.34 52.85 106.24 52.85 106.21 53.02 106.21 53.14 106.18 53.22 106.12 53.26 106.03 53.31 105.92 53.33 104.75 53.34 104.6 53.38 104.5 53.25 104.41 53.19 104.3 53.15 104.16 53.15 104.11 53.19 104.03 53.25 103.96 53.29 103.93 53.23 103.86 53.14 103.83 53.08 103.83 53.05 103.39 53.07 103.21 52.98 103.33 52.73 103.22 52.48 103.06 52.36 102.87 52.27 102.68 52.13 102.49 52.07 102.34 52.22 102.17 52.54 102.07 52.54 101.83 52.47 101.8 52.5 101.47 52.69 101.32 52.73 101.17 52.83 101.04 52.94 100.95 53.05 100.81 53.05 100.6 53.08 100.15 53.09 100.05 53.2 100.13 53.66 99.98 53.79 99.88 53.75 99.8 53.68 99.73 53.56 99.62 53.6 99.54 53.69 99.46 53.8 99.07 53.89 98.91 53.85 98.1 53.38 97.95 53.23 97.8 53.19 97.63 53.3 97.49 53.46 97.44 53.59 97.34 53.59 97.13 53.71 96.88 53.9 96.4 54.12 96.22 54.15 95.49 54.17 95.36 54.21 95.08 54.39 94.94 54.42 94.8 54.55 94.57 55.13 94.45 55.36 94.19 55.53 93.94 55.57 93.34 55.52 92.98 55.58 92.89 55.74 92.9 55.99 92.84 56.34 92.46 56.63 92.03 56.24 91.61 55.63 91.27 55.25 91.01 55.2 90.08 55.28 89.96 55.23 89.92 55.1 89.88 54.95 89.83 54.82 89.74 54.76 89.43 54.61 88.86 54.45 88.68 54.27 88.62 54.21 88.58 54.14 88.56 54.05 88.56 53.96 88.57 53.87 88.72 53.56 88.68 53.46 88.56 53.35 88.21 53.22 88.02 53.18 87.87 53.18 87.8 53.23 87.75 53.28 87.66 53.43 87.5 53.95 87.46 54.04 87.42 54.11 87.37 54.17 87.31 54.22 87.2 54.27 87.06 54.32 86.8 54.36 86.65 54.36 86.53 54.35 86.45 54.31 86.08 54.04 85.93 53.97 85.82 53.96 85.33 54.04 85.2 54.04 85.08 54 85.02 53.96 84.85 53.79 84.76 53.65 84.68 53.49 84.58 53.02 84.52 52.85 84.46 52.77 84.35 52.7 84.16 52.62 84.02 52.6 83.91 52.6 83.44 52.7 83.35 52.74 83.29 52.78 83.19 52.92 83.2 53.14 83.18 53.54 82.98 54 82.77 54.29 82.47 54.39 81.97 54.26 81.99 54.52 82.09 54.63 82.21 54.71 82.27 54.87 82.21 55 81.94 55.16 81.89 55.34 81.87 55.83 81.76 56.26 81.51 56.54 81.06 56.58 80.72 56.38 80.45 56 80.25 55.57 80.18 55.16 80.23 54.87 80.47 54.45 80.52 54.17 80.49 53.96 80.38 53.77 80.21 53.63 80.04 53.5 79.95 53.55 79.78 53.63 79.7 53.69 79.65 53.76 79.6 53.89 79.37 54.32 79.29 54.44 78.91 54.11 78.74 54.06 78.52 54.22 78.49 54.27 78.42 54.45 78.38 54.51 78.31 54.6 78.16 54.68 78.11 54.75 78 54.83 77.85 54.88 76.94 54.97 76.71 54.83 76.62 54.45 76.58 54.1 76.46 53.89 76.25 53.77 75.93 53.73 75.04 53.8 74.83 53.69 74.7 53.38 74.7 52.75 74.56 52.47 74.04 52.22 73.49 52.42 73 52.81 71.83 54.05 71.3 54.4 70.69 54.51 70.09 54.34 69.76 54.17 69.63 54.01 69.67 53.76 69.68 53.65 69.7 53.49 69.79 53.14 69.79 52.98 69.69 52.79 69.78 52.6 69.74 52.43 69.64 52.29 69.5 52.33 69 52.17 68.32 52.04 67.79 51.78 67.75 51.23 67.67 50.87 67.72 50.37 67.72 49.94 67.5 49.75 67.15 49.8 66.5 50.05 66.08 50.11 64.21 49.9 63.86 50.01 63.64 50.26 63.47 50.56 63.29 50.85 63.2 51 62.87 51.06 62.17 51.07 61.97 50.96 61.5 50.42 61.31 50.3 61.22 50.21 60.98 49.81 60.83 49.71 60.38 49.63 60.21 49.63 59.9 49.69 58.97 50.09 58.81 50 57.06 49.64 56.78 49.54 55.72 48.87 55.4 48.79 55.18 48.86 54.97 48.94 54.67 49 54.4 48.97 53.86 48.81 53.57 48.77 52.93 48.81 52.61 48.74 52.38 48.54 52.33 48.28 52.28 47.37 52.33 47.17 52.38 47.04 52.14 46.75 51.71 46.36 51.58 46.1 51.49 45.8 51.36 45.55 51.08 45.44 50.81 45.43 50.67 45.39 50.55 45.34 50.44 45.23 50.38 45.11 50.34 44.99 50.26 44.9 50 44.71 49.8 44.71 49.66 44.9 49.59 45.73 49.48 45.98 49.27 46.09 48.94 46.05 48.64 45.94 48.12 45.64 47.45 45.55 47.32 45.59 47.2 45.67 47.05 45.85 46.95 45.94 46.7 46.02 45.85 45.94 45.59 45.85 45.42 45.67 45.14 45.26 42.8 43.01 42.67 42.93 42.37 42.86 42.24 42.79 42.02 42.73 41.39 42.82 41.18 42.84 41.18 41.89 41.17 39.99 41.17 32.38 41.16 30.47 41.16 22.86 41.15 20.97 41.15 13.36 41.13 11.47 41.13 10.63 36.59 10.63 34.05 10.62 31.03 10.6 27.68 10.57 24.08 10.53 20.39 10.5 16.67 10.43 13.09 10.37 9.73 10.31 6.72 10.23 4.18 10.17 2.23 10.12 .97 10.1 .52 10.09 .57 7.99 .63 5.91 .68 3.82 .73 1.74 2.4 1.78 4.06 1.83 7.4 1.9 9.05 1.94 10.72 1.98 12.39 2 14.04 2.04 20.27 2.14 26.5 2.21 29.61 2.24 32.73 2.26 35.84 2.28 38.95 2.29 42.07 2.29 45.18 2.28 48.29 2.26 51.42 2.25 54.52 2.23 57.65 2.19 60.76 2.16 63.88 2.11 66.99 2.06 70.09 2 73.21 1.94 76.31 1.87 79.43 1.79 82.54 1.72 85.65 1.62 88.77 1.53 91.88 1.43 95 1.32 98.11 1.21 101.22 1.08 104.34 .94 107.45 .81 110.55 .67 113.67 .52 113.77 2.61 113.86 4.69 113.96 6.78 114.06 8.87 114.06 8.87"/>
  </g>
</svg>
